<svg xmlns="http://www.w3.org/2000/svg" xmlns:xlink="http://www.w3.org/1999/xlink" contentStyleType="text/css" data-diagram-type="DESCRIPTION" height="685px" preserveAspectRatio="none" style="width:465px;height:685px;background:#FFFFFF;" version="1.1" viewBox="0 0 465 685" width="465px" zoomAndPan="magnify"><defs/><g><!--cluster Rill System--><g class="cluster" data-entity="Rill System" data-source-line="7" data-uid="ent0005" id="cluster_Rill System"><rect fill="none" height="672" rx="2.5" ry="2.5" style="stroke:#181818;stroke-width:1;" width="240.77" x="219.12" y="7"/><text fill="#000000" font-family="sans-serif" font-size="14" font-weight="bold" lengthAdjust="spacing" textLength="88.3682" x="295.3209" y="21.9951">Rill System</text></g><!--entity UC_Auth--><g class="entity" data-entity="UC_Auth" data-source-line="8" data-uid="ent0006" id="entity_UC_Auth"><ellipse cx="339.5012" cy="424.0042" fill="#F1F1F1" rx="73.9212" ry="17.1842" style="stroke:#181818;stroke-width:0.5;"/><text fill="#000000" font-family="sans-serif" font-size="14" lengthAdjust="spacing" textLength="116.1016" x="281.4504" y="428.6527">Register &amp; Login</text></g><!--entity UC_Profile--><g class="entity" data-entity="UC_Profile" data-source-line="9" data-uid="ent0007" id="entity_UC_Profile"><ellipse cx="339.5001" cy="271" fill="#F1F1F1" rx="88.8001" ry="20.16" style="stroke:#181818;stroke-width:0.5;"/><text fill="#000000" font-family="sans-serif" font-size="14" lengthAdjust="spacing" textLength="151.0195" x="263.9903" y="275.6484">Manage Personal Info</text></g><!--entity UC_Browse--><g class="entity" data-entity="UC_Browse" data-source-line="10" data-uid="ent0008" id="entity_UC_Browse"><ellipse cx="339.4968" cy="349.0014" fill="#F1F1F1" rx="104.0568" ry="23.2114" style="stroke:#181818;stroke-width:0.5;"/><text fill="#000000" font-family="sans-serif" font-size="14" lengthAdjust="spacing" textLength="184.96" x="247.0168" y="353.6498">Browse &amp; Search Products</text></g><!--entity UC_Cart--><g class="entity" data-entity="UC_Cart" data-source-line="11" data-uid="ent0009" id="entity_UC_Cart"><ellipse cx="339.4977" cy="125.9955" fill="#F1F1F1" rx="63.5777" ry="15.1155" style="stroke:#181818;stroke-width:0.5;"/><text fill="#000000" font-family="sans-serif" font-size="14" lengthAdjust="spacing" textLength="89.6602" x="294.6677" y="130.644">Manage Cart</text></g><!--entity UC_Order--><g class="entity" data-entity="UC_Order" data-source-line="12" data-uid="ent0010" id="entity_UC_Order"><ellipse cx="339.5" cy="195.998" fill="#F1F1F1" rx="87.89" ry="19.978" style="stroke:#181818;stroke-width:0.5;"/><text fill="#000000" font-family="sans-serif" font-size="14" lengthAdjust="spacing" textLength="148.9482" x="265.0259" y="200.6464">Place &amp; Cancel Order</text></g><!--entity UC_Review--><g class="entity" data-entity="UC_Review" data-source-line="13" data-uid="ent0011" id="entity_UC_Review"><ellipse cx="339.5032" cy="58.9986" fill="#F1F1F1" rx="73.8932" ry="17.1786" style="stroke:#181818;stroke-width:0.5;"/><text fill="#000000" font-family="sans-serif" font-size="14" lengthAdjust="spacing" textLength="116.0332" x="281.4866" y="63.6471">Review Products</text></g><!--entity UC_Admin_Product--><g class="entity" data-entity="UC_Admin_Product" data-source-line="14" data-uid="ent0012" id="entity_UC_Admin_Product"><ellipse cx="339.5022" cy="639.9964" fill="#F1F1F1" rx="104.3822" ry="23.2764" style="stroke:#181818;stroke-width:0.5;"/><text fill="#000000" font-family="sans-serif" font-size="14" lengthAdjust="spacing" textLength="185.6709" x="246.6667" y="644.6449">Manage Products &amp; Artists</text></g><!--entity UC_Admin_Order--><g class="entity" data-entity="UC_Admin_Order" data-source-line="15" data-uid="ent0013" id="entity_UC_Admin_Order"><ellipse cx="339.5007" cy="493.0001" fill="#F1F1F1" rx="70.4007" ry="16.4801" style="stroke:#181818;stroke-width:0.5;"/><text fill="#000000" font-family="sans-serif" font-size="14" lengthAdjust="spacing" textLength="107.3857" x="285.8078" y="497.6486">Manage Orders</text></g><!--entity UC_Admin_Customer--><g class="entity" data-entity="UC_Admin_Customer" data-source-line="16" data-uid="ent0014" id="entity_UC_Admin_Customer"><ellipse cx="339.5007" cy="563.0041" fill="#F1F1F1" rx="82.6707" ry="18.9341" style="stroke:#181818;stroke-width:0.5;"/><text fill="#000000" font-family="sans-serif" font-size="14" lengthAdjust="spacing" textLength="136.9307" x="271.0354" y="567.6526">View Customer Info</text></g><!--entity Guest--><g class="entity" data-entity="Guest" data-source-line="3" data-uid="ent0002" id="entity_Guest"><ellipse cx="154.5591" cy="385.35" fill="#F1F1F1" rx="8" ry="8" style="stroke:#181818;stroke-width:0.5;"/><path d="M154.5591,393.35 L154.5591,420.35 M141.5591,401.35 L167.5591,401.35 M154.5591,420.35 L141.5591,435.35 M154.5591,420.35 L167.5591,435.35" fill="none" style="stroke:#181818;stroke-width:0.5;"/><text fill="#000000" font-family="sans-serif" font-size="14" lengthAdjust="spacing" textLength="41.1182" x="134" y="449.8451">Guest</text></g><!--entity Customer--><g class="entity" data-entity="Customer" data-source-line="4" data-uid="ent0003" id="entity_Customer"><ellipse cx="40.002" cy="152.35" fill="#F1F1F1" rx="8" ry="8" style="stroke:#181818;stroke-width:0.5;"/><path d="M40.002,160.35 L40.002,187.35 M27.002,168.35 L53.002,168.35 M40.002,187.35 L27.002,202.35 M40.002,187.35 L53.002,202.35" fill="none" style="stroke:#181818;stroke-width:0.5;"/><text fill="#000000" font-family="sans-serif" font-size="14" lengthAdjust="spacing" textLength="68.0039" x="6" y="216.8451">Customer</text></g><!--entity Admin--><g class="entity" data-entity="Admin" data-source-line="5" data-uid="ent0004" id="entity_Admin"><ellipse cx="40.0021" cy="476.35" fill="#F1F1F1" rx="8" ry="8" style="stroke:#181818;stroke-width:0.5;"/><path d="M40.0021,484.35 L40.0021,511.35 M27.0021,492.35 L53.0021,492.35 M40.0021,511.35 L27.0021,526.35 M40.0021,511.35 L53.0021,526.35" fill="none" style="stroke:#181818;stroke-width:0.5;"/><text fill="#000000" font-family="sans-serif" font-size="14" lengthAdjust="spacing" textLength="44.8643" x="17.57" y="540.8451">Admin</text></g><!--link Customer to Guest--><g class="link" data-entity-1="Customer" data-entity-2="Guest" data-source-line="20" data-uid="lnk15" id="link_Customer_Guest"><path d="M59.59,220.48 C80.44,263.65 106.25,317.0622 127.12,360.2622" fill="none" id="Customer-to-Guest" style="stroke:#181818;stroke-width:1;"/><polygon fill="none" points="134.95,376.47,132.5226,357.6523,121.7174,362.8722,134.95,376.47" style="stroke:#181818;stroke-width:1;"/></g><!--link Admin to Guest--><g class="link" data-entity-1="Admin" data-entity-2="Guest" data-source-line="21" data-uid="lnk16" id="link_Admin_Guest"><path d="M62.7,488.45 C83.28,471.82 99.9129,458.3773 119.8129,442.2873" fill="none" id="Admin-to-Guest" style="stroke:#181818;stroke-width:1;"/><polygon fill="none" points="133.81,430.97,116.0405,437.6216,123.5853,446.953,133.81,430.97" style="stroke:#181818;stroke-width:1;"/></g><!--link Guest to UC_Auth--><g class="link" data-entity-1="Guest" data-entity-2="UC_Auth" data-source-line="24" data-uid="lnk17" id="link_Guest_UC_Auth"><path d="M175.49,415.98 C197.44,417.06 233.99,418.86 266.93,420.48" fill="none" id="Guest-UC_Auth" style="stroke:#181818;stroke-width:1;"/></g><!--link Guest to UC_Browse--><g class="link" data-entity-1="Guest" data-entity-2="UC_Browse" data-source-line="25" data-uid="lnk18" id="link_Guest_UC_Browse"><path d="M175.6,404.83 C186.04,399.74 199.11,393.67 211.12,389 C231.32,381.14 253.76,373.69 274.1,367.39" fill="none" id="Guest-UC_Browse" style="stroke:#181818;stroke-width:1;"/></g><!--link Customer to UC_Profile--><g class="link" data-entity-1="Customer" data-entity-2="UC_Profile" data-source-line="28" data-uid="lnk19" id="link_Customer_UC_Profile"><path d="M74.25,191.98 C108.54,202.27 163.56,218.78 211.12,233 C235.11,240.17 261.65,248.09 284.26,254.84" fill="none" id="Customer-UC_Profile" style="stroke:#181818;stroke-width:1;"/></g><!--link Customer to UC_Cart--><g class="link" data-entity-1="Customer" data-entity-2="UC_Cart" data-source-line="29" data-uid="lnk20" id="link_Customer_UC_Cart"><path d="M74.08,174.57 C91.82,170.67 114.07,165.9 134,162 C185.66,151.9 244.91,141.61 286.29,134.64" fill="none" id="Customer-UC_Cart" style="stroke:#181818;stroke-width:1;"/></g><!--link Customer to UC_Order--><g class="link" data-entity-1="Customer" data-entity-2="UC_Order" data-source-line="30" data-uid="lnk21" id="link_Customer_UC_Order"><path d="M74.26,183.57 C117.17,185.58 193.38,189.17 252.96,191.97" fill="none" id="Customer-UC_Order" style="stroke:#181818;stroke-width:1;"/></g><!--link Customer to UC_Review--><g class="link" data-entity-1="Customer" data-entity-2="UC_Review" data-source-line="31" data-uid="lnk22" id="link_Customer_UC_Review"><path d="M74.12,164.49 C91.86,155.12 114.11,143.4 134,133 C168.22,115.11 175.12,106.95 211.12,93 C234.49,83.94 261.18,76.42 284.06,70.76" fill="none" id="Customer-UC_Review" style="stroke:#181818;stroke-width:1;"/></g><!--link Admin to UC_Profile--><g class="link" data-entity-1="Admin" data-entity-2="UC_Profile" data-source-line="34" data-uid="lnk23" id="link_Admin_UC_Profile"><path d="M59.49,467.59 C75.99,435.96 102.4,391.25 134,359 C172.01,320.21 229.9,297.5 274.4,284.89" fill="none" id="Admin-UC_Profile" style="stroke:#181818;stroke-width:1;"/></g><!--link Admin to UC_Admin_Product--><g class="link" data-entity-1="Admin" data-entity-2="UC_Admin_Product" data-source-line="35" data-uid="lnk24" id="link_Admin_UC_Admin_Product"><path d="M62.89,519.72 C94.65,539.22 155.77,575.21 211.12,599 C230.97,607.53 253.21,615.27 273.48,621.68" fill="none" id="Admin-UC_Admin_Product" style="stroke:#181818;stroke-width:1;"/></g><!--link Admin to UC_Admin_Order--><g class="link" data-entity-1="Admin" data-entity-2="UC_Admin_Order" data-source-line="36" data-uid="lnk25" id="link_Admin_UC_Admin_Order"><path d="M62.88,505.04 C105.95,503.16 203.36,498.91 270.03,495.99" fill="none" id="Admin-UC_Admin_Order" style="stroke:#181818;stroke-width:1;"/></g><!--link Admin to UC_Admin_Customer--><g class="link" data-entity-1="Admin" data-entity-2="UC_Admin_Customer" data-source-line="37" data-uid="lnk26" id="link_Admin_UC_Admin_Customer"><path d="M62.88,510.19 C107.03,518.65 208.24,538.04 274.96,550.83" fill="none" id="Admin-UC_Admin_Customer" style="stroke:#181818;stroke-width:1;"/></g><!--SRC=[RL51RiCW4BppYbKEwSbVgEJwK5LgLIjHUeqGtjX812eMDwhQ_hs0mI5sJi3i3BExe_3am1cmiXySTDAYSD9enhXmniBpYEJIlHd9cJFQzAoxi_Iy8E2wLmYRdLGAzj_ayBo17mOm4WfEeOAzzB25BRoQNkeDS893Swn7DvIyDwvvZz2Y9QEvWXTzCfdRMdEI2alwapKNVsvXZzoA0Job6uMZB9dgTmmQRbqcXNj9QHKNuS-6Qu4Atcs7DdFZutQmBucNbV44tvii4Vt_jNL-9xCahlEOwdUKqNh1NhNp4Ph9ETriRnBC4VunzW1rp767YeV8QP2Vn6PnLVq-flYZjWIyDbxWG66NXCIcTrNDgPP0oi7Bvk-loiAnZ7a1nvGMs3J-0aoh3-F5jgz6UOpIfSHk4rXN9hirdXlu1m00]--></g></svg>