<svg xmlns="http://www.w3.org/2000/svg" xmlns:xlink="http://www.w3.org/1999/xlink" contentStyleType="text/css" data-diagram-type="DESCRIPTION" height="410px" preserveAspectRatio="none" style="width:448px;height:410px;background:#FFFFFF;" version="1.1" viewBox="0 0 448 410" width="448px" zoomAndPan="magnify"><defs/><g><!--cluster Rill System--><g class="cluster" data-entity="Rill System" data-source-line="7" data-uid="ent0005" id="cluster_Rill System"><rect fill="none" height="372" rx="2.5" ry="2.5" style="stroke:#181818;stroke-width:1;" width="220.01" x="222.87" y="13.65"/><text fill="#000000" font-family="sans-serif" font-size="14" font-weight="bold" lengthAdjust="spacing" textLength="88.3682" x="288.6909" y="28.6451">Rill System</text></g><!--entity UC1--><g class="entity" data-entity="UC1" data-source-line="8" data-uid="ent0006" id="entity_UC1"><ellipse cx="332.8709" cy="134.6542" fill="#F1F1F1" rx="74.2209" ry="17.2442" style="stroke:#181818;stroke-width:0.5;"/><text fill="#000000" font-family="sans-serif" font-size="14" lengthAdjust="spacing" textLength="116.833" x="274.4544" y="139.3026">Manage Account</text></g><!--entity UC2--><g class="entity" data-entity="UC2" data-source-line="9" data-uid="ent0007" id="entity_UC2"><ellipse cx="332.865" cy="65.649" fill="#F1F1F1" rx="71.245" ry="16.649" style="stroke:#181818;stroke-width:0.5;"/><text fill="#000000" font-family="sans-serif" font-size="14" lengthAdjust="spacing" textLength="109.498" x="278.116" y="70.2974">Browse Catalog</text></g><!--entity UC3--><g class="entity" data-entity="UC3" data-source-line="10" data-uid="ent0008" id="entity_UC3"><ellipse cx="332.8663" cy="205.6473" fill="#F1F1F1" rx="79.5363" ry="18.3073" style="stroke:#181818;stroke-width:0.5;"/><text fill="#000000" font-family="sans-serif" font-size="14" lengthAdjust="spacing" textLength="129.582" x="268.0753" y="210.2957">Purchase Products</text></g><!--entity UC4--><g class="entity" data-entity="UC4" data-source-line="11" data-uid="ent0009" id="entity_UC4"><ellipse cx="332.8707" cy="275.6501" fill="#F1F1F1" rx="70.4007" ry="16.4801" style="stroke:#181818;stroke-width:0.5;"/><text fill="#000000" font-family="sans-serif" font-size="14" lengthAdjust="spacing" textLength="107.3857" x="279.1778" y="280.2986">Manage Orders</text></g><!--entity UC5--><g class="entity" data-entity="UC5" data-source-line="12" data-uid="ent0010" id="entity_UC5"><ellipse cx="332.8745" cy="348.6509" fill="#F1F1F1" rx="94.0045" ry="21.2009" style="stroke:#181818;stroke-width:0.5;"/><text fill="#000000" font-family="sans-serif" font-size="14" lengthAdjust="spacing" textLength="162.75" x="251.4995" y="353.2993">Manage Administration</text></g><!--entity Guest--><g class="entity" data-entity="Guest" data-source-line="3" data-uid="ent0002" id="entity_Guest"><ellipse cx="156.4391" cy="14" fill="#F1F1F1" rx="8" ry="8" style="stroke:#181818;stroke-width:0.5;"/><path d="M156.4391,22 L156.4391,49 M143.4391,30 L169.4391,30 M156.4391,49 L143.4391,64 M156.4391,49 L169.4391,64" fill="none" style="stroke:#181818;stroke-width:0.5;"/><text fill="#000000" font-family="sans-serif" font-size="14" lengthAdjust="spacing" textLength="41.1182" x="135.88" y="78.4951">Guest</text></g><!--entity Customer--><g class="entity" data-entity="Customer" data-source-line="4" data-uid="ent0003" id="entity_Customer"><ellipse cx="40.002" cy="141" fill="#F1F1F1" rx="8" ry="8" style="stroke:#181818;stroke-width:0.5;"/><path d="M40.002,149 L40.002,176 M27.002,157 L53.002,157 M40.002,176 L27.002,191 M40.002,176 L53.002,191" fill="none" style="stroke:#181818;stroke-width:0.5;"/><text fill="#000000" font-family="sans-serif" font-size="14" lengthAdjust="spacing" textLength="68.0039" x="6" y="205.4951">Customer</text></g><!--entity Admin--><g class="entity" data-entity="Admin" data-source-line="5" data-uid="ent0004" id="entity_Admin"><ellipse cx="156.4321" cy="338" fill="#F1F1F1" rx="8" ry="8" style="stroke:#181818;stroke-width:0.5;"/><path d="M156.4321,346 L156.4321,373 M143.4321,354 L169.4321,354 M156.4321,373 L143.4321,388 M156.4321,373 L169.4321,388" fill="none" style="stroke:#181818;stroke-width:0.5;"/><text fill="#000000" font-family="sans-serif" font-size="14" lengthAdjust="spacing" textLength="44.8643" x="134" y="402.4951">Admin</text></g><!--link Guest to UC1--><g class="link" data-entity-1="Guest" data-entity-2="UC1" data-source-line="15" data-uid="lnk11" id="link_Guest_UC1"><path d="M177.42,67.95 C187.62,78.98 200.82,91.39 214.87,99.65 C233.14,110.4 254.99,118.09 274.84,123.48" fill="none" id="Guest-UC1" style="stroke:#181818;stroke-width:1;"/></g><!--link Guest to UC2--><g class="link" data-entity-1="Guest" data-entity-2="UC2" data-source-line="16" data-uid="lnk12" id="link_Guest_UC2"><path d="M177.45,46.18 C199.82,49 237.16,53.71 269.52,57.79" fill="none" id="Guest-UC2" style="stroke:#181818;stroke-width:1;"/></g><!--link Customer to Guest--><g class="link" data-entity-1="Customer" data-entity-2="Guest" data-source-line="18" data-uid="lnk13" id="link_Customer_Guest"><path d="M74.41,133.58 C94.2,111.61 106.5719,97.8832 123.3919,79.2132" fill="none" id="Customer-to-Guest" style="stroke:#181818;stroke-width:1;"/><polygon fill="none" points="135.44,65.84,118.9342,75.1972,127.8497,83.2293,135.44,65.84" style="stroke:#181818;stroke-width:1;"/></g><!--link Customer to UC1--><g class="link" data-entity-1="Customer" data-entity-2="UC1" data-source-line="20" data-uid="lnk14" id="link_Customer_UC1"><path d="M74.14,166.31 C91.89,164.01 114.13,161.14 134,158.65 C178.13,153.13 227.81,147.1 266.35,142.47" fill="none" id="Customer-UC1" style="stroke:#181818;stroke-width:1;"/></g><!--link Customer to UC3--><g class="link" data-entity-1="Customer" data-entity-2="UC3" data-source-line="21" data-uid="lnk15" id="link_Customer_UC3"><path d="M74.37,174.67 C119.81,180.13 202.28,190.06 261.66,197.2" fill="none" id="Customer-UC3" style="stroke:#181818;stroke-width:1;"/></g><!--link Customer to UC4--><g class="link" data-entity-1="Customer" data-entity-2="UC4" data-source-line="22" data-uid="lnk16" id="link_Customer_UC4"><path d="M74.26,185.45 C108.96,200.6 165.14,224.33 214.87,241.65 C237.64,249.59 263.33,257.2 284.83,263.2" fill="none" id="Customer-UC4" style="stroke:#181818;stroke-width:1;"/></g><!--link Admin to UC1--><g class="link" data-entity-1="Admin" data-entity-2="UC1" data-source-line="24" data-uid="lnk17" id="link_Admin_UC1"><path d="M158.09,329.08 C160.96,284.7 172.4,212.47 214.87,169.65 C228.53,155.88 247.37,147.48 265.95,142.37" fill="none" id="Admin-UC1" style="stroke:#181818;stroke-width:1;"/></g><!--link Admin to UC4--><g class="link" data-entity-1="Admin" data-entity-2="UC4" data-source-line="25" data-uid="lnk18" id="link_Admin_UC4"><path d="M179.37,340.05 C189.21,329.23 201.59,317.55 214.87,309.65 C233.5,298.57 255.97,290.91 276.22,285.71" fill="none" id="Admin-UC4" style="stroke:#181818;stroke-width:1;"/></g><!--link Admin to UC5--><g class="link" data-entity-1="Admin" data-entity-2="UC5" data-source-line="26" data-uid="lnk19" id="link_Admin_UC5"><path d="M179.18,365.28 C196.62,363.38 222.3,360.59 247.64,357.83" fill="none" id="Admin-UC5" style="stroke:#181818;stroke-width:1;"/></g><!--SRC=[RP3D2i8m383lUOgmkmTrNWNTmPCeYWyGkZWBtGffYeZwxcwZWogUcY_zGduSNnNLezZcfbXROQFMTm1ar0lk8WTDSHM3-fObuQPkRUyD1TGrZh4uMUVm_0ZARO5FG8o13ON-PqyTDOmROtpij40AUAdckR4LV-_VYfISRvAno8rZ57CRegFuEXeDILh-QNIGccKIod-J3CFRe4B3jabSmHjWt1Xdit7031O0qm7wn6kTJfCdnv9lNlvm2J2sdkmCoXnM7m00]--></g></svg>