<svg xmlns="http://www.w3.org/2000/svg" xmlns:xlink="http://www.w3.org/1999/xlink" contentStyleType="text/css" data-diagram-type="DESCRIPTION" height="342px" preserveAspectRatio="none" style="width:963px;height:342px;background:#FFFFFF;" version="1.1" viewBox="0 0 963 342" width="963px" zoomAndPan="magnify"><defs/><g><!--cluster Rill System--><g class="cluster" data-entity="Rill System" data-source-line="5" data-uid="ent0005" id="cluster_Rill System"><rect fill="none" height="93.4" rx="2.5" ry="2.5" style="stroke:#181818;stroke-width:1;" width="950" x="7" y="243.1"/><text fill="#000000" font-family="sans-serif" font-size="14" font-weight="bold" lengthAdjust="spacing" textLength="88.3682" x="437.8159" y="258.0951">Rill System</text></g><!--entity UC1--><g class="entity" data-entity="UC1" data-source-line="6" data-uid="ent0006" id="entity_UC1"><ellipse cx="274.0009" cy="299.3042" fill="#F1F1F1" rx="74.2209" ry="17.2442" style="stroke:#181818;stroke-width:0.5;"/><text fill="#000000" font-family="sans-serif" font-size="14" lengthAdjust="spacing" textLength="116.833" x="215.5844" y="303.9526">Manage Account</text></g><!--entity UC2--><g class="entity" data-entity="UC2" data-source-line="7" data-uid="ent0007" id="entity_UC2"><ellipse cx="93.995" cy="299.299" fill="#F1F1F1" rx="71.245" ry="16.649" style="stroke:#181818;stroke-width:0.5;"/><text fill="#000000" font-family="sans-serif" font-size="14" lengthAdjust="spacing" textLength="109.498" x="39.246" y="303.9474">Browse Catalog</text></g><!--entity UC3--><g class="entity" data-entity="UC3" data-source-line="8" data-uid="ent0008" id="entity_UC3"><ellipse cx="462.9963" cy="299.2973" fill="#F1F1F1" rx="79.5363" ry="18.3073" style="stroke:#181818;stroke-width:0.5;"/><text fill="#000000" font-family="sans-serif" font-size="14" lengthAdjust="spacing" textLength="129.582" x="398.2053" y="303.9457">Purchase Products</text></g><!--entity UC4--><g class="entity" data-entity="UC4" data-source-line="9" data-uid="ent0009" id="entity_UC4"><ellipse cx="648.0007" cy="299.3001" fill="#F1F1F1" rx="70.4007" ry="16.4801" style="stroke:#181818;stroke-width:0.5;"/><text fill="#000000" font-family="sans-serif" font-size="14" lengthAdjust="spacing" textLength="107.3857" x="594.3078" y="303.9486">Manage Orders</text></g><!--entity UC5--><g class="entity" data-entity="UC5" data-source-line="10" data-uid="ent0010" id="entity_UC5"><ellipse cx="847.0045" cy="299.3009" fill="#F1F1F1" rx="94.0045" ry="21.2009" style="stroke:#181818;stroke-width:0.5;"/><text fill="#000000" font-family="sans-serif" font-size="14" lengthAdjust="spacing" textLength="162.75" x="765.6295" y="303.9493">Manage Administration</text></g><!--entity Guest--><g class="entity" data-entity="Guest" data-source-line="1" data-uid="ent0002" id="entity_Guest"><ellipse cx="273.9991" cy="150.3" fill="#F1F1F1" rx="8" ry="8" style="stroke:#181818;stroke-width:0.5;"/><path d="M273.9991,158.3 L273.9991,185.3 M260.9991,166.3 L286.9991,166.3 M273.9991,185.3 L260.9991,200.3 M273.9991,185.3 L286.9991,200.3" fill="none" style="stroke:#181818;stroke-width:0.5;"/><text fill="#000000" font-family="sans-serif" font-size="14" lengthAdjust="spacing" textLength="41.1182" x="253.44" y="214.7951">Guest</text></g><!--entity Customer--><g class="entity" data-entity="Customer" data-source-line="2" data-uid="ent0003" id="entity_Customer"><ellipse cx="400.002" cy="14" fill="#F1F1F1" rx="8" ry="8" style="stroke:#181818;stroke-width:0.5;"/><path d="M400.002,22 L400.002,49 M387.002,30 L413.002,30 M400.002,49 L387.002,64 M400.002,49 L413.002,64" fill="none" style="stroke:#181818;stroke-width:0.5;"/><text fill="#000000" font-family="sans-serif" font-size="14" lengthAdjust="spacing" textLength="68.0039" x="366" y="78.4951">Customer</text></g><!--entity Admin--><g class="entity" data-entity="Admin" data-source-line="3" data-uid="ent0004" id="entity_Admin"><ellipse cx="648.0021" cy="150.3" fill="#F1F1F1" rx="8" ry="8" style="stroke:#181818;stroke-width:0.5;"/><path d="M648.0021,158.3 L648.0021,185.3 M635.0021,166.3 L661.0021,166.3 M648.0021,185.3 L635.0021,200.3 M648.0021,185.3 L661.0021,200.3" fill="none" style="stroke:#181818;stroke-width:0.5;"/><text fill="#000000" font-family="sans-serif" font-size="14" lengthAdjust="spacing" textLength="44.8643" x="625.57" y="214.7951">Admin</text></g><!--link Guest to UC1--><g class="link" data-entity-1="Guest" data-entity-2="UC1" data-source-line="13" data-uid="lnk11" id="link_Guest_UC1"><path d="M274,218.4 C274,239.73 274,265.39 274,281.77" fill="none" id="Guest-UC1" style="stroke:#181818;stroke-width:1;"/></g><!--link Guest to UC2--><g class="link" data-entity-1="Guest" data-entity-2="UC2" data-source-line="14" data-uid="lnk12" id="link_Guest_UC2"><path d="M253.21,192.47 C234.35,203.09 205.91,219.52 182,235.1 C158.2,250.6 131.86,269.8 114.26,282.95" fill="none" id="Guest-UC2" style="stroke:#181818;stroke-width:1;"/></g><!--link Customer to UC1--><g class="link" data-entity-1="Customer" data-entity-2="UC1" data-source-line="16" data-uid="lnk13" id="link_Customer_UC1"><path d="M381.41,82.08 C353.55,138.17 302.11,241.71 282.18,281.82" fill="none" id="Customer-UC1" style="stroke:#181818;stroke-width:1;"/></g><!--link Customer to UC3--><g class="link" data-entity-1="Customer" data-entity-2="UC3" data-source-line="17" data-uid="lnk14" id="link_Customer_UC3"><path d="M409.3,82.08 C423.09,137.61 448.44,239.68 458.61,280.62" fill="none" id="Customer-UC3" style="stroke:#181818;stroke-width:1;"/></g><!--link Customer to UC4--><g class="link" data-entity-1="Customer" data-entity-2="UC4" data-source-line="18" data-uid="lnk15" id="link_Customer_UC4"><path d="M434.48,79.92 C489.32,136 594.16,243.23 633.02,282.98" fill="none" id="Customer-UC4" style="stroke:#181818;stroke-width:1;"/></g><!--link Admin to UC1--><g class="link" data-entity-1="Admin" data-entity-2="UC1" data-source-line="20" data-uid="lnk16" id="link_Admin_UC1"><path d="M625.16,182.17 C575.96,185.46 457.08,197.04 366,235.1 C338.11,246.75 310.05,267.67 292.38,282.24" fill="none" id="Admin-UC1" style="stroke:#181818;stroke-width:1;"/></g><!--link Admin to UC4--><g class="link" data-entity-1="Admin" data-entity-2="UC4" data-source-line="21" data-uid="lnk17" id="link_Admin_UC4"><path d="M648,218.4 C648,240 648,266.03 648,282.38" fill="none" id="Admin-UC4" style="stroke:#181818;stroke-width:1;"/></g><!--link Admin to UC5--><g class="link" data-entity-1="Admin" data-entity-2="UC5" data-source-line="22" data-uid="lnk18" id="link_Admin_UC5"><path d="M670.83,194.41 C706.05,215.18 773.79,255.13 814.24,278.98" fill="none" id="Admin-UC5" style="stroke:#181818;stroke-width:1;"/></g><!--link Customer to Guest--><g class="link" data-entity-1="Customer" data-entity-2="Guest" data-source-line="24" data-uid="lnk19" id="link_Customer_Guest"><path d="M365.57,81.35 C342.98,105.43 326.4976,123.0045 307.2876,143.4745" fill="none" id="Customer-to-Guest" style="stroke:#181818;stroke-width:1;"/><polygon fill="none" points="294.97,156.6,311.6627,147.5804,302.9124,139.3687,294.97,156.6" style="stroke:#181818;stroke-width:1;"/></g><!--SRC=[RP3F2eCm38VlUOhWtSFySnqu3pkDoSOU8DJY16qXJHbZsxjFdK8TdfgFV3I_X9HOngFNJe2cklHERAzvngBkMmF0MWcPfjCONTgkm-lJYUuZV06YTrgH6pedCjHeB9IotaY4vF1MxaBZmFOnl2K9TRQPZIGqAi_gFbOLszehSREKRWmwSwrv4RAj96FurWcJjDRCOWuVW6bZZECfO009m7A0fRlcz8ypW6dAOWUGXP2lFdxlVpV_0W00]--></g></svg>