<svg xmlns="http://www.w3.org/2000/svg" xmlns:xlink="http://www.w3.org/1999/xlink" contentStyleType="text/css" data-diagram-type="DESCRIPTION" height="514px" preserveAspectRatio="none" style="width:920px;height:514px;background:#FFFFFF;" version="1.1" viewBox="0 0 920 514" width="920px" zoomAndPan="magnify"><defs/><g><!--cluster Rill System--><g class="cluster" data-entity="Rill System" data-source-line="13" data-uid="ent0007" id="cluster_Rill System"><rect fill="#FFFFFF" height="99.79" rx="2.5" ry="2.5" style="stroke:#000000;stroke-width:1;" width="788" x="12" y="272.59"/><text fill="#000000" font-family="Verdana" font-size="14" font-weight="bold" lengthAdjust="spacing" textLength="88.3682" x="361.8159" y="287.5851">Rill System</text></g><!--cluster Address Management Details--><g class="cluster" data-entity="Address Management Details" data-source-line="28" data-uid="ent0016" id="cluster_Address Management Details"><path d="M224.5,421.38 L457.4297,421.38 A3.75,3.75 0 0 1 459.9297,423.88 L466.9297,443.6769 L910.5,443.6769 A2.5,2.5 0 0 1 913,446.1769 L913,505.4 A2.5,2.5 0 0 1 910.5,507.9 L224.5,507.9 A2.5,2.5 0 0 1 222,505.4 L222,423.88 A2.5,2.5 0 0 1 224.5,421.38" fill="#FFFFFF" style="stroke:#000000;stroke-width:1;"/><line style="stroke:#000000;stroke-width:1;" x1="222" x2="466.9297" y1="443.6769" y2="443.6769"/><text fill="#000000" font-family="Verdana" font-size="14" font-weight="bold" lengthAdjust="spacing" textLength="231.9297" x="226" y="436.3751">Address Management Details</text></g><!--entity UC1--><g class="entity" data-entity="UC1" data-source-line="14" data-uid="ent0008" id="entity_UC1"><ellipse cx="645.0028" cy="331.9836" fill="#FFFFFF" rx="44.2028" ry="14.5236" style="stroke:#000000;stroke-width:1;"/><text fill="#000000" font-family="Verdana" font-size="14" lengthAdjust="spacing" textLength="58.2695" x="615.868" y="336.6321">Register</text></g><!--entity UC2--><g class="entity" data-entity="UC2" data-source-line="15" data-uid="ent0009" id="entity_UC2"><ellipse cx="754.0004" cy="331.9836" fill="#FFFFFF" rx="29.8804" ry="14.5236" style="stroke:#000000;stroke-width:1;"/><text fill="#000000" font-family="Verdana" font-size="14" lengthAdjust="spacing" textLength="38.0146" x="734.9931" y="336.6321">Login</text></g><!--entity UC2b--><g class="entity" data-entity="UC2b" data-source-line="16" data-uid="ent0010" id="entity_UC2b"><ellipse cx="273.9982" cy="331.9836" fill="#FFFFFF" rx="37.0682" ry="14.5236" style="stroke:#000000;stroke-width:1;"/><text fill="#000000" font-family="Verdana" font-size="14" lengthAdjust="spacing" textLength="48.1797" x="249.9083" y="336.6321">Logout</text></g><!--entity UC3--><g class="entity" data-entity="UC3" data-source-line="17" data-uid="ent0011" id="entity_UC3"><ellipse cx="114.9984" cy="331.9797" fill="#FFFFFF" rx="86.6484" ry="19.7297" style="stroke:#000000;stroke-width:1;"/><text fill="#000000" font-family="Verdana" font-size="14" lengthAdjust="spacing" textLength="146.1113" x="41.9427" y="336.6281">Update Personal Info</text></g><!--entity UC4--><g class="entity" data-entity="UC4" data-source-line="18" data-uid="ent0012" id="entity_UC4"><ellipse cx="456.0023" cy="331.9825" fill="#FFFFFF" rx="109.9623" ry="24.3925" style="stroke:#000000;stroke-width:1;"/><text fill="#000000" font-family="Verdana" font-size="14" lengthAdjust="spacing" textLength="197.7979" x="357.1033" y="336.6309">Manage Shipping Addresses</text></g><!--entity Add--><g class="entity" data-entity="Add" data-source-line="29" data-uid="ent0017" id="entity_Add"><ellipse cx="820.0006" cy="474.1421" fill="#FFFFFF" rx="76.8106" ry="17.7621" style="stroke:#000000;stroke-width:1;"/><text fill="#000000" font-family="Verdana" font-size="14" lengthAdjust="spacing" textLength="123.0947" x="758.4532" y="478.7906">Add New Address</text></g><!--entity Edit--><g class="entity" data-entity="Edit" data-source-line="30" data-uid="ent0018" id="entity_Edit"><ellipse cx="300.998" cy="474.1436" fill="#FFFFFF" rx="62.918" ry="14.9836" style="stroke:#000000;stroke-width:1;"/><text fill="#000000" font-family="Verdana" font-size="14" lengthAdjust="spacing" textLength="87.8691" x="257.0635" y="478.792">Edit Address</text></g><!--entity Delete--><g class="entity" data-entity="Delete" data-source-line="31" data-uid="ent0019" id="entity_Delete"><ellipse cx="469.0004" cy="474.1401" fill="#FFFFFF" rx="70.1504" ry="16.4301" style="stroke:#000000;stroke-width:1;"/><text fill="#000000" font-family="Verdana" font-size="14" lengthAdjust="spacing" textLength="106.7568" x="415.622" y="478.7885">Delete Address</text></g><!--entity SetDefault--><g class="entity" data-entity="SetDefault" data-source-line="32" data-uid="ent0020" id="entity_SetDefault"><ellipse cx="640.9982" cy="474.1356" fill="#FFFFFF" rx="67.0782" ry="15.8156" style="stroke:#000000;stroke-width:1;"/><text fill="#000000" font-family="Verdana" font-size="14" lengthAdjust="spacing" textLength="98.916" x="591.5402" y="478.7841">Set as Default</text></g><!--entity Customer--><g class="entity" data-entity="Customer" data-source-line="4" data-uid="ent0002" id="entity_Customer"><ellipse cx="186.002" cy="19" fill="#FFFFFF" rx="8" ry="8" style="stroke:#000000;stroke-width:1;"/><path d="M186.002,27 L186.002,54 M173.002,35 L199.002,35 M186.002,54 L173.002,69 M186.002,54 L199.002,69" fill="none" style="stroke:#000000;stroke-width:1;"/><text fill="#000000" font-family="Verdana" font-size="14" lengthAdjust="spacing" textLength="68.0039" x="152" y="83.9951">Customer</text></g><!--entity Guest--><g class="entity" data-entity="Guest" data-source-line="5" data-uid="ent0003" id="entity_Guest"><ellipse cx="548.9991" cy="157.29" fill="#FFFFFF" rx="8" ry="8" style="stroke:#000000;stroke-width:1;"/><path d="M548.9991,165.29 L548.9991,192.29 M535.9991,173.29 L561.9991,173.29 M548.9991,192.29 L535.9991,207.29 M548.9991,192.29 L561.9991,207.29" fill="none" style="stroke:#000000;stroke-width:1;"/><text fill="#000000" font-family="Verdana" font-size="14" lengthAdjust="spacing" textLength="41.1182" x="528.44" y="222.2851">Guest</text></g><!--entity Admin--><g class="entity" data-entity="Admin" data-source-line="6" data-uid="ent0004" id="entity_Admin"><ellipse cx="549.0021" cy="19" fill="#FFFFFF" rx="8" ry="8" style="stroke:#000000;stroke-width:1;"/><path d="M549.0021,27 L549.0021,54 M536.0021,35 L562.0021,35 M549.0021,54 L536.0021,69 M549.0021,54 L562.0021,69" fill="none" style="stroke:#000000;stroke-width:1;"/><text fill="#000000" font-family="Verdana" font-size="14" lengthAdjust="spacing" textLength="44.8643" x="526.57" y="83.9951">Admin</text></g><g class="entity" data-entity="AuthNote" data-source-line="70" data-uid="ent0036" id="entity_AuthNote"><path d="M26.56,461.57 L26.56,486.7028 L203.4457,486.7028 L203.4457,471.57 L193.4457,461.57 L26.56,461.57" fill="#FFFFFF" style="stroke:#000000;stroke-width:1;"/><path d="M193.4457,461.57 L193.4457,471.57 L203.4457,471.57 L193.4457,461.57" fill="#FFFFFF" style="stroke:#000000;stroke-width:1;"/><text fill="#000000" font-family="Verdana" font-size="13" lengthAdjust="spacing" textLength="155.8857" x="32.56" y="478.6369">Requires authentication</text></g><!--link Admin to Guest--><!--link Admin to Guest--><g class="link" data-entity-1="Admin" data-entity-2="Guest" data-source-line="45" data-uid="lnk25" id="link_Admin_Guest"><path d="M561.25,87.61 C562.92,106.52 564.5248,111.3717 562.8348,130.2517" fill="none" id="Admin-to-Guest" style="stroke:#000000;stroke-width:1;"/><polygon fill="none" points="561.23,148.18,568.8109,130.7866,556.8587,129.7167,561.23,148.18" style="stroke:#000000;stroke-width:1;"/></g><!--link Guest to Customer--><!--link Customer to Guest--><g class="link" data-entity-1="Customer" data-entity-2="Guest" data-source-line="44" data-uid="lnk24" id="link_Customer_Guest"><path d="M220.44,67.08 C254.76,80.6 307.74,99.92 354,117.29 C416.48,140.76 473.6594,164.5806 510.7994,175.8806" fill="none" id="Customer-to-Guest" style="stroke:#000000;stroke-width:1;"/><polygon fill="none" points="528.02,181.12,512.5459,170.1404,509.0529,181.6208,528.02,181.12" style="stroke:#000000;stroke-width:1;"/></g><!--link UC1 to UC2--><!--link UC3 to UC4--><!--link Customer to UC3--><!--link Customer to UC3--><g class="link" data-entity-1="Customer" data-entity-2="UC3" data-source-line="57" data-uid="lnk30" id="link_Customer_UC3"><path d="M186,87.59 C176.53,148.63 148.3099,260.8925 129.2299,306.6325" fill="none" id="Customer-to-UC3" style="stroke:#000000;stroke-width:1;"/><polygon fill="#000000" points="126.92,312.17,134.0766,305.4037,128.8449,307.5554,126.6932,302.3238,126.92,312.17" style="stroke:#000000;stroke-width:1;"/></g><!--link Add to Edit--><!--link Edit to Delete--><!--link Delete to SetDefault--><!--link Guest to UC1--><g class="link" data-entity-1="Guest" data-entity-2="UC1" data-source-line="49" data-uid="lnk26" id="link_Guest_UC1"><path d="M569.83,218.98 C590.34,249.55 617.3875,289.8373 632.4675,312.3173" fill="none" id="Guest-to-UC1" style="stroke:#000000;stroke-width:1;"/><polygon fill="#000000" points="635.81,317.3,634.1181,307.5976,633.0246,313.1477,627.4744,312.0542,635.81,317.3" style="stroke:#000000;stroke-width:1;"/></g><!--link Guest to UC2--><g class="link" data-entity-1="Guest" data-entity-2="UC2" data-source-line="50" data-uid="lnk27" id="link_Guest_UC2"><path d="M569.83,194.28 C601.99,204.85 664.44,228.51 707,264.59 C724.77,279.66 736.2839,297.6143 744.2639,312.2243" fill="none" id="Guest-to-UC2" style="stroke:#000000;stroke-width:1;"/><polygon fill="#000000" points="747.14,317.49,746.3363,307.674,744.7432,313.1019,739.3153,311.5088,747.14,317.49" style="stroke:#000000;stroke-width:1;"/></g><!--link Admin to UC2b--><g class="link" data-entity-1="Admin" data-entity-2="UC2b" data-source-line="53" data-uid="lnk28" id="link_Admin_UC2b"><path d="M526.38,70.26 C485.63,107.71 397.74,189.97 329,264.59 C312.67,282.31 298.8448,299.2883 288.0748,312.9483" fill="none" id="Admin-to-UC2b" style="stroke:#000000;stroke-width:1;"/><polygon fill="#000000" points="284.36,317.66,293.0734,313.069,287.4557,313.7336,286.7911,308.1159,284.36,317.66" style="stroke:#000000;stroke-width:1;"/></g><!--link Customer to UC2b--><g class="link" data-entity-1="Customer" data-entity-2="UC2b" data-source-line="54" data-uid="lnk29" id="link_Customer_UC2b"><path d="M200.6,87.77 C204.13,97.36 207.81,107.67 211,117.29 C235.78,192 259.4055,277.1803 268.6955,311.3403" fill="none" id="Customer-to-UC2b" style="stroke:#000000;stroke-width:1;"/><polygon fill="#000000" points="270.27,317.13,271.768,307.3957,268.9579,312.3052,264.0484,309.4951,270.27,317.13" style="stroke:#000000;stroke-width:1;"/></g><!--link Customer to UC4--><g class="link" data-entity-1="Customer" data-entity-2="UC4" data-source-line="58" data-uid="lnk31" id="link_Customer_UC4"><path d="M220.47,85.56 C276.77,144.22 382.7253,254.6312 429.7253,303.6012" fill="none" id="Customer-to-UC4" style="stroke:#000000;stroke-width:1;"/><polygon fill="#000000" points="433.88,307.93,430.5339,298.667,430.4178,304.3227,424.7621,304.2066,433.88,307.93" style="stroke:#000000;stroke-width:1;"/></g><!--link UC4 to Add--><g class="link" data-entity-1="UC4" data-entity-2="Add" data-source-line="64" data-uid="lnk32" id="link_UC4_Add"><path d="M505.99,354.03 C529.1,363.14 557.12,373.31 583,380.38 C602.6,385.73 608.14,384.08 628,388.38 C671.94,397.87 684.74,395.54 726,413.38 C752.63,424.89 775.4701,439.8975 793.8401,453.2775" fill="none" id="UC4-to-Add" style="stroke:#000000;stroke-width:1;stroke-dasharray:7,7;"/><polygon fill="#000000" points="798.69,456.81,793.7701,448.278,794.6484,453.8663,789.0602,454.7445,798.69,456.81" style="stroke:#000000;stroke-width:1;"/><text fill="#000000" font-family="Verdana" font-size="13" lengthAdjust="spacing" textLength="63.0068" x="705" y="401.4469">«include»</text></g><!--link UC4 to Edit--><g class="link" data-entity-1="UC4" data-entity-2="Edit" data-source-line="65" data-uid="lnk33" id="link_UC4_Edit"><path d="M426.74,355.88 C414.56,365.65 400.39,377.33 388,388.38 C361.08,412.37 335.515,437.85 318.705,454.96" fill="none" id="UC4-to-Edit" style="stroke:#000000;stroke-width:1;stroke-dasharray:7,7;"/><polygon fill="#000000" points="314.5,459.24,323.6608,455.6233,318.0041,455.6733,317.9541,450.0167,314.5,459.24" style="stroke:#000000;stroke-width:1;"/><text fill="#000000" font-family="Verdana" font-size="13" lengthAdjust="spacing" textLength="63.0068" x="389" y="401.4469">«include»</text></g><!--link UC4 to Delete--><g class="link" data-entity-1="UC4" data-entity-2="Delete" data-source-line="66" data-uid="lnk34" id="link_UC4_Delete"><path d="M458.21,356.76 C460.87,385.5 464.7258,427.0757 466.9958,451.5457" fill="none" id="UC4-to-Delete" style="stroke:#000000;stroke-width:1;stroke-dasharray:7,7;"/><polygon fill="#000000" points="467.55,457.52,470.7016,448.189,467.0881,452.5414,462.7358,448.928,467.55,457.52" style="stroke:#000000;stroke-width:1;"/><text fill="#000000" font-family="Verdana" font-size="13" lengthAdjust="spacing" textLength="63.0068" x="463" y="401.4469">«include»</text></g><!--link UC4 to SetDefault--><g class="link" data-entity-1="UC4" data-entity-2="SetDefault" data-source-line="67" data-uid="lnk35" id="link_UC4_SetDefault"><path d="M489.39,355.7 C503.59,365.55 520.25,377.33 535,388.38 C566.87,412.25 598.2336,437.7195 619.0136,454.8795" fill="none" id="UC4-to-SetDefault" style="stroke:#000000;stroke-width:1;stroke-dasharray:7,7;"/><polygon fill="#000000" points="623.64,458.7,619.2473,449.885,619.7846,455.5163,614.1534,456.0536,623.64,458.7" style="stroke:#000000;stroke-width:1;"/><text fill="#000000" font-family="Verdana" font-size="13" lengthAdjust="spacing" textLength="63.0068" x="556" y="401.4469">«include»</text></g><!--link UC3 to AuthNote--><g class="link" data-entity-1="UC3" data-entity-2="AuthNote" data-source-line="71" data-uid="lnk37" id="link_UC3_AuthNote"><path d="M115,352.18 C115,381.57 115,436.86 115,461.16" fill="none" id="UC3-AuthNote" style="stroke:#000000;stroke-width:1;stroke-dasharray:7,7;"/></g><!--link UC4 to AuthNote--><g class="link" data-entity-1="UC4" data-entity-2="AuthNote" data-source-line="72" data-uid="lnk38" id="link_UC4_AuthNote"><path d="M402.49,353.74 C379.91,362.29 353.28,372.11 329,380.38 C281.89,396.42 267.75,393.8 222,413.38 C189.72,427.19 154.6,448.02 133.71,461.09" fill="none" id="UC4-AuthNote" style="stroke:#000000;stroke-width:1;stroke-dasharray:7,7;"/></g><!--link UC2b to AuthNote--><g class="link" data-entity-1="UC2b" data-entity-2="AuthNote" data-source-line="73" data-uid="lnk39" id="link_UC2b_AuthNote"><path d="M259.61,345.67 C229.03,372.62 157.97,435.26 128.34,461.38" fill="none" id="UC2b-AuthNote" style="stroke:#000000;stroke-width:1;stroke-dasharray:7,7;"/></g><!--SRC=[ZLLBQnDH5DxFhpXsqmSaqBGhAO4q3KsXJMic0Okuk9tSpbmwkPDcxlI1kj0kn4N1WYv4bDOYWY8A5OGCucAA_sF-YUS-aaodzP75CFUSRyxvpkExkIKysgNGymdZbZK9XK81AjNMUjEMhnPnHD27QXIAe4lxvhWSqL2Ozqgdgp-qqy6N7XoaWvyzS98p1xHVUCafzw2Rngy4EEgvbNpa8Fh96GF72y1DusCEBi9SIqM3mZsFTJgKt-y4-xnWqgbdtZKYPfZRctQhjWQBw-t6KgMvgKheKqSGxleK9fhCzy4-30NjJi032o0AgKD2wQ4kGtD_0aW8xUfirhSQk8mRHodd228nz6nbNUrUXmWA6xGV1fpuiCAt0mESo-BM22Sk1TjZlHxZBhQpqwTXI4C3dhSGFGbBs1sGdNI1krYCxZ160Ha68KXvt9i-SprHC6mnuGsUUHMsUdd4SGPf_0n7f8UZfxQNng-PiMIo3DjzGy0vwz5e2Er5QDirg5RicWtRQabKLQ2hxL8kr6HwnDcHrK_Su5-YWZ0_p8q9WT2W-yE0gadudeNKEanSyKj35h14VOgZoKAqAGkogT2ERHBvUiHeCiV_cGau0KUO99nlbY6aYEPz8oQ6PTwV8J7gTxEsMccjh3Vi-ig6LYqwPcPQzSecN3vFunShKAqdnuqwfF5Rj2HFDcTc439RXCKqVWbXXEHtKBWerZJ-HC2eiF2mRBGtdllOTWs44Kj5M4xEEEn6Xsdyc2jv2mmf5rlk5KAqZ9taGYKxGZguWvW- -G5Ua0w-EqCBzzB1vzvGzeMoKcNsL98PDOkzv7IycrEN9yavN9vaeanVJtWGfOFtuohAMi6PGeq5SuoCuo2x-FKv1nzPumNt3UC938CBW0cJTrmgvmC1X1xdGyxb3VFZCfGIhrFLDS1KTaIogxgNqwhwgrLDmbmHxYON1DlmwsiQlv5HqlY4GKYO_bPd54hdDzzMajUTY71PnbDOM63SyQCEBPSj90r5UG4Nosh1zU_s7p5gq_-1CVl-Lynu-QzYZ0uQwwsQtdyU27MdxqOCDGuamZyvBfX310lqJLv1KmDHbhmUYyNiUJvtBcrb3Ry1]--></g></svg>