<svg xmlns="http://www.w3.org/2000/svg" xmlns:xlink="http://www.w3.org/1999/xlink" contentStyleType="text/css" data-diagram-type="DESCRIPTION" height="821px" preserveAspectRatio="none" style="width:1337px;height:821px;background:#FFFFFF;" version="1.1" viewBox="0 0 1337 821" width="1337px" zoomAndPan="magnify"><defs/><g><!--cluster Rill System--><g class="cluster" data-entity="Rill System" data-source-line="12" data-uid="ent0007" id="cluster_Rill System"><rect fill="#FFFFFF" height="444.89" rx="2.5" ry="2.5" style="stroke:#000000;stroke-width:1;" width="240" x="256" y="272.6"/><text fill="#000000" font-family="Verdana" font-size="14" font-weight="bold" lengthAdjust="spacing" textLength="88.3682" x="331.8159" y="287.5951">Rill System</text></g><!--entity UC_Browse--><g class="entity" data-entity="UC_Browse" data-source-line="13" data-uid="ent0008" id="entity_UC_Browse"><ellipse cx="375.9968" cy="330.8114" fill="#FFFFFF" rx="104.0568" ry="23.2114" style="stroke:#000000;stroke-width:1;"/><text fill="#000000" font-family="Verdana" font-size="14" lengthAdjust="spacing" textLength="184.96" x="283.5168" y="335.4598">Browse &amp; Search Products</text></g><!--entity UC_Cart--><g class="entity" data-entity="UC_Cart" data-source-line="14" data-uid="ent0009" id="entity_UC_Cart"><ellipse cx="387.004" cy="435.9628" fill="#FFFFFF" rx="92.714" ry="20.9428" style="stroke:#000000;stroke-width:1;"/><text fill="#000000" font-family="Verdana" font-size="14" lengthAdjust="spacing" textLength="159.8584" x="307.0748" y="440.6112">Manage Shopping Cart</text></g><!--entity UC_Order--><g class="entity" data-entity="UC_Order" data-source-line="15" data-uid="ent0010" id="entity_UC_Order"><ellipse cx="418.9955" cy="556.6991" fill="#FFFFFF" rx="60.6955" ry="14.5391" style="stroke:#000000;stroke-width:1;"/><text fill="#000000" font-family="Verdana" font-size="14" lengthAdjust="spacing" textLength="81.7031" x="378.144" y="561.3475">Place Order</text></g><!--entity UC_Review--><g class="entity" data-entity="UC_Review" data-source-line="16" data-uid="ent0011" id="entity_UC_Review"><ellipse cx="343.001" cy="684.8982" fill="#FFFFFF" rx="70.941" ry="16.5882" style="stroke:#000000;stroke-width:1;"/><text fill="#000000" font-family="Verdana" font-size="14" lengthAdjust="spacing" textLength="108.7393" x="288.6314" y="689.5466">Review Product</text></g><!--entity Customer--><g class="entity" data-entity="Customer" data-source-line="5" data-uid="ent0002" id="entity_Customer"><ellipse cx="209.002" cy="19" fill="#FFFFFF" rx="8" ry="8" style="stroke:#000000;stroke-width:1;"/><path d="M209.002,27 L209.002,54 M196.002,35 L222.002,35 M209.002,54 L196.002,69 M209.002,54 L222.002,69" fill="none" style="stroke:#000000;stroke-width:1;"/><text fill="#000000" font-family="Verdana" font-size="14" lengthAdjust="spacing" textLength="68.0039" x="175" y="83.9951">Customer</text></g><!--entity Guest--><g class="entity" data-entity="Guest" data-source-line="6" data-uid="ent0003" id="entity_Guest"><ellipse cx="330.9991" cy="157.3" fill="#FFFFFF" rx="8" ry="8" style="stroke:#000000;stroke-width:1;"/><path d="M330.9991,165.3 L330.9991,192.3 M317.9991,173.3 L343.9991,173.3 M330.9991,192.3 L317.9991,207.3 M330.9991,192.3 L343.9991,207.3" fill="none" style="stroke:#000000;stroke-width:1;"/><text fill="#000000" font-family="Verdana" font-size="14" lengthAdjust="spacing" textLength="41.1182" x="310.44" y="222.2951">Guest</text></g><!--entity Admin--><g class="entity" data-entity="Admin" data-source-line="7" data-uid="ent0004" id="entity_Admin"><ellipse cx="331.0021" cy="19" fill="#FFFFFF" rx="8" ry="8" style="stroke:#000000;stroke-width:1;"/><path d="M331.0021,27 L331.0021,54 M318.0021,35 L344.0021,35 M331.0021,54 L318.0021,69 M331.0021,54 L344.0021,69" fill="none" style="stroke:#000000;stroke-width:1;"/><text fill="#000000" font-family="Verdana" font-size="14" lengthAdjust="spacing" textLength="44.8643" x="308.57" y="83.9951">Admin</text></g><!--entity AddItem--><g class="entity" data-entity="AddItem" data-source-line="18" data-uid="ent0012" id="entity_AddItem"><ellipse cx="634.9957" cy="435.9636" fill="#FFFFFF" rx="55.7457" ry="14.5236" style="stroke:#000000;stroke-width:1;"/><text fill="#000000" font-family="Verdana" font-size="14" lengthAdjust="spacing" textLength="74.5938" x="597.6989" y="440.6121">(Add Item)</text></g><!--entity UpdateQty--><g class="entity" data-entity="UpdateQty" data-source-line="19" data-uid="ent0013" id="entity_UpdateQty"><ellipse cx="1252.9974" cy="556.7035" fill="#FFFFFF" rx="78.2674" ry="18.0535" style="stroke:#000000;stroke-width:1;"/><text fill="#000000" font-family="Verdana" font-size="14" lengthAdjust="spacing" textLength="126.5742" x="1189.7103" y="561.3519">(Update Quantity)</text></g><!--entity RemoveItem--><g class="entity" data-entity="RemoveItem" data-source-line="20" data-uid="ent0014" id="entity_RemoveItem"><ellipse cx="1243.0002" cy="684.896" fill="#FFFFFF" rx="69.3302" ry="16.266" style="stroke:#000000;stroke-width:1;"/><text fill="#000000" font-family="Verdana" font-size="14" lengthAdjust="spacing" textLength="104.6855" x="1190.6574" y="689.5445">(Remove Item)</text></g><!--entity SelectAddr--><g class="entity" data-entity="SelectAddr" data-source-line="21" data-uid="ent0015" id="entity_SelectAddr"><ellipse cx="681.0016" cy="556.7043" fill="#FFFFFF" rx="101.9716" ry="22.7943" style="stroke:#000000;stroke-width:1;"/><text fill="#000000" font-family="Verdana" font-size="14" lengthAdjust="spacing" textLength="180.3936" x="590.8049" y="561.3528">(Select Shipping Address)</text></g><!--entity StockCheck--><g class="entity" data-entity="StockCheck" data-source-line="22" data-uid="ent0016" id="entity_StockCheck"><ellipse cx="900.0022" cy="684.8984" fill="#FFFFFF" rx="91.5922" ry="20.7184" style="stroke:#000000;stroke-width:1;"/><text fill="#000000" font-family="Verdana" font-size="14" lengthAdjust="spacing" textLength="157.3359" x="821.3342" y="689.5469">(Perform Stock Check)</text></g><!--entity ClearCart--><g class="entity" data-entity="ClearCart" data-source-line="23" data-uid="ent0017" id="entity_ClearCart"><ellipse cx="1011.0044" cy="794.4409" fill="#FFFFFF" rx="60.6544" ry="14.5309" style="stroke:#000000;stroke-width:1;"/><text fill="#000000" font-family="Verdana" font-size="14" lengthAdjust="spacing" textLength="81.5869" x="970.211" y="799.0893">(Clear Cart)</text></g><!--entity VerifyStatus--><g class="entity" data-entity="VerifyStatus" data-source-line="24" data-uid="ent0018" id="entity_VerifyStatus"><ellipse cx="643.0037" cy="684.9047" fill="#FFFFFF" rx="130.0237" ry="28.4047" style="stroke:#000000;stroke-width:1;"/><text fill="#000000" font-family="Verdana" font-size="14" lengthAdjust="spacing" textLength="240.625" x="522.6912" y="689.5532">(Verify Order Status is 'Delivered')</text></g><!--entity UC_Cancel--><g class="entity" data-entity="UC_Cancel" data-source-line="25" data-uid="ent0019" id="entity_UC_Cancel"><ellipse cx="128.0046" cy="556.7029" fill="#FFFFFF" rx="64.4146" ry="15.2829" style="stroke:#000000;stroke-width:1;"/><text fill="#000000" font-family="Verdana" font-size="14" lengthAdjust="spacing" textLength="91.9092" x="82.05" y="561.3514">Cancel Order</text></g><g class="entity" data-entity="GMN43" data-source-line="68" data-uid="ent0044" id="entity_GMN43"><path d="M202.79,774.3 L202.79,814.5656 A0,0 0 0 0 202.79,814.5656 L483.2187,814.5656 A0,0 0 0 0 483.2187,814.5656 L483.2187,784.3 L473.2187,774.3 L347,774.3 L343,701.77 L339,774.3 L202.79,774.3 A0,0 0 0 0 202.79,774.3" fill="#FFFFFF" style="stroke:#000000;stroke-width:1;"/><path d="M473.2187,774.3 L473.2187,784.3 L483.2187,784.3 L473.2187,774.3" fill="#FFFFFF" style="stroke:#000000;stroke-width:1;"/><text fill="#000000" font-family="Verdana" font-size="13" lengthAdjust="spacing" textLength="259.4287" x="208.79" y="791.3669">All use cases except "Browse &amp; Search"</text><text fill="#000000" font-family="Verdana" font-size="13" lengthAdjust="spacing" textLength="149.5571" x="208.79" y="806.4997">require authentication.</text></g><!--link Customer to Guest--><g class="link" data-entity-1="Customer" data-entity-2="Guest" data-source-line="8" data-uid="lnk5" id="link_Customer_Guest"><path d="M242.98,87.62 C264.56,111.72 279.7722,128.7306 298.1922,149.3006" fill="none" id="Customer-to-Guest" style="stroke:#000000;stroke-width:1;"/><polygon fill="none" points="310.2,162.71,302.662,145.298,293.7224,153.3032,310.2,162.71" style="stroke:#000000;stroke-width:1;"/></g><!--link Admin to Guest--><g class="link" data-entity-1="Admin" data-entity-2="Guest" data-source-line="9" data-uid="lnk6" id="link_Admin_Guest"><path d="M331,87.62 C331,106.52 331,111.31 331,130.19" fill="none" id="Admin-to-Guest" style="stroke:#000000;stroke-width:1;"/><polygon fill="none" points="331,148.19,337,130.19,325,130.19,331,148.19" style="stroke:#000000;stroke-width:1;"/></g><!--link UC_Browse to UC_Cart--><!--link UC_Cart to UC_Order--><!--link UC_Order to UC_Review--><!--link UC_Cancel to UC_Order--><!--link UC_Cancel to UC_Order--><g class="link" data-entity-1="UC_Cancel" data-entity-2="UC_Order" data-source-line="64" data-uid="lnk42" id="link_UC_Cancel_UC_Order"><path d="M192.58,556.7 C241.98,556.7 303.62,556.7 352.08,556.7" fill="none" id="UC_Cancel-to-UC_Order" style="stroke:#000000;stroke-width:1;stroke-dasharray:7,7;"/><polygon fill="#000000" points="358.08,556.7,349.08,552.7,353.08,556.7,349.08,560.7,358.08,556.7" style="stroke:#000000;stroke-width:1;"/><text fill="#000000" font-family="Verdana" font-size="13" lengthAdjust="spacing" textLength="61.1851" x="244.8041" y="534.7669">«extend»</text><text fill="#000000" font-family="Verdana" font-size="13" lengthAdjust="spacing" textLength="129.0732" x="210.86" y="549.8997">(If order is pending)</text></g><!--link UC_Order to SelectAddr--><!--link UC_Order to SelectAddr--><g class="link" data-entity-1="UC_Order" data-entity-2="SelectAddr" data-source-line="58" data-uid="lnk38" id="link_UC_Order_SelectAddr"><path d="M480.1,556.7 C509.43,556.7 539.38,556.7 572.72,556.7" fill="none" id="UC_Order-to-SelectAddr" style="stroke:#000000;stroke-width:1;stroke-dasharray:7,7;"/><polygon fill="#000000" points="578.72,556.7,569.72,552.7,573.72,556.7,569.72,560.7,578.72,556.7" style="stroke:#000000;stroke-width:1;"/><text fill="#000000" font-family="Verdana" font-size="13" lengthAdjust="spacing" textLength="63.0068" x="497.86" y="549.7669">«include»</text></g><!--link SelectAddr to StockCheck--><!--link StockCheck to ClearCart--><!--link UC_Cart to AddItem--><!--link UC_Cart to AddItem--><g class="link" data-entity-1="UC_Cart" data-entity-2="AddItem" data-source-line="55" data-uid="lnk35" id="link_UC_Cart_AddItem"><path d="M480.05,435.96 C513.31,435.96 543.75,435.96 572.93,435.96" fill="none" id="UC_Cart-to-AddItem" style="stroke:#000000;stroke-width:1;stroke-dasharray:7,7;"/><polygon fill="#000000" points="578.93,435.96,569.93,431.96,573.93,435.96,569.93,439.96,578.93,435.96" style="stroke:#000000;stroke-width:1;"/><text fill="#000000" font-family="Verdana" font-size="13" lengthAdjust="spacing" textLength="63.0068" x="497.98" y="429.0269">«include»</text></g><!--link AddItem to UpdateQty--><!--link UpdateQty to RemoveItem--><!--link UC_Review to VerifyStatus--><!--link UC_Review to VerifyStatus--><g class="link" data-entity-1="UC_Review" data-entity-2="VerifyStatus" data-source-line="61" data-uid="lnk41" id="link_UC_Review_VerifyStatus"><path d="M414.1,684.9 C443.64,684.9 472.89,684.9 506.77,684.9" fill="none" id="UC_Review-to-VerifyStatus" style="stroke:#000000;stroke-width:1;stroke-dasharray:7,7;"/><polygon fill="#000000" points="512.77,684.9,503.77,680.9,507.77,684.9,503.77,688.9,512.77,684.9" style="stroke:#000000;stroke-width:1;"/><text fill="#000000" font-family="Verdana" font-size="13" lengthAdjust="spacing" textLength="63.0068" x="431.96" y="677.9669">«include»</text></g><!--link Guest to UC_Browse--><g class="link" data-entity-1="Guest" data-entity-2="UC_Browse" data-source-line="47" data-uid="lnk31" id="link_Guest_UC_Browse"><path d="M343.06,225.97 C351.29,251.9 360.0969,279.6605 367.0169,301.4905" fill="none" id="Guest-to-UC_Browse" style="stroke:#000000;stroke-width:1;"/><polygon fill="#000000" points="368.83,307.21,369.9234,297.422,367.3191,302.4437,362.2974,299.8394,368.83,307.21" style="stroke:#000000;stroke-width:1;"/></g><!--link Customer to UC_Cart--><g class="link" data-entity-1="Customer" data-entity-2="UC_Cart" data-source-line="50" data-uid="lnk32" id="link_Customer_UC_Cart"><path d="M204.9,87.4 C200.22,148.72 199.25,271.43 254,354.02 C273.94,384.1 303.7636,402.3912 332.9936,415.3312" fill="none" id="Customer-to-UC_Cart" style="stroke:#000000;stroke-width:1;"/><polygon fill="#000000" points="338.48,417.76,331.8696,410.4592,333.908,415.736,328.6312,417.7744,338.48,417.76" style="stroke:#000000;stroke-width:1;"/></g><!--link Customer to UC_Order--><g class="link" data-entity-1="Customer" data-entity-2="UC_Order" data-source-line="51" data-uid="lnk33" id="link_Customer_UC_Order"><path d="M181.71,87.6 C165.47,113.9 148,150.43 148,185.95 C148,185.95 148,185.95 148,436.96 C148,528.27 272.6607,549.6623 352.5307,554.4323" fill="none" id="Customer-to-UC_Order" style="stroke:#000000;stroke-width:1;"/><polygon fill="#000000" points="358.52,554.79,349.7745,550.2606,353.5289,554.4919,349.2975,558.2463,358.52,554.79" style="stroke:#000000;stroke-width:1;"/></g><!--link Customer to UC_Review--><g class="link" data-entity-1="Customer" data-entity-2="UC_Review" data-source-line="52" data-uid="lnk34" id="link_Customer_UC_Review"><path d="M174.51,56.79 C117.78,70.76 11,107.49 11,185.95 C11,185.95 11,185.95 11,557.7 C11,615.97 186.0596,655.9011 280.7796,673.3811" fill="none" id="Customer-to-UC_Review" style="stroke:#000000;stroke-width:1;"/><polygon fill="#000000" points="286.68,674.47,278.5554,668.9031,281.763,673.5626,277.1035,676.7703,286.68,674.47" style="stroke:#000000;stroke-width:1;"/></g><!--link UC_Cart to UpdateQty--><g class="link" data-entity-1="UC_Cart" data-entity-2="UpdateQty" data-source-line="56" data-uid="lnk36" id="link_UC_Cart_UpdateQty"><path d="M466.62,447.02 C496.49,450.54 530.77,454.26 562,456.91 C801.07,477.16 867.97,429.8 1101,486.91 C1124.98,492.78 1179.0674,518.6789 1216.1174,537.0989" fill="none" id="UC_Cart-to-UpdateQty" style="stroke:#000000;stroke-width:1;stroke-dasharray:7,7;"/><polygon fill="#000000" points="1221.49,539.77,1215.2118,532.1816,1217.0128,537.5441,1211.6503,539.3451,1221.49,539.77" style="stroke:#000000;stroke-width:1;"/><text fill="#000000" font-family="Verdana" font-size="13" lengthAdjust="spacing" textLength="63.0068" x="1142" y="499.9769">«include»</text></g><!--link UC_Cart to RemoveItem--><g class="link" data-entity-1="UC_Cart" data-entity-2="RemoveItem" data-source-line="57" data-uid="lnk37" id="link_UC_Cart_RemoveItem"><path d="M454.39,450.7 C536.58,467.94 679.44,499.43 800,533.91 C953.6,577.83 1127.1452,640.7415 1201.8552,668.4815" fill="none" id="UC_Cart-to-RemoveItem" style="stroke:#000000;stroke-width:1;stroke-dasharray:7,7;"/><polygon fill="#000000" points="1207.48,670.57,1200.4352,663.6874,1202.7927,668.8296,1197.6505,671.1871,1207.48,670.57" style="stroke:#000000;stroke-width:1;"/><text fill="#000000" font-family="Verdana" font-size="13" lengthAdjust="spacing" textLength="63.0068" x="944" y="561.2669">«include»</text></g><!--link UC_Order to StockCheck--><g class="link" data-entity-1="UC_Order" data-entity-2="StockCheck" data-source-line="59" data-uid="lnk39" id="link_UC_Order_StockCheck"><path d="M458.36,568.03 C542.95,590.22 736.6165,641.027 835.9165,667.087" fill="none" id="UC_Order-to-StockCheck" style="stroke:#000000;stroke-width:1;stroke-dasharray:7,7;"/><polygon fill="#000000" points="841.72,668.61,834.0302,662.4564,836.8838,667.3408,831.9994,670.1944,841.72,668.61" style="stroke:#000000;stroke-width:1;"/><text fill="#000000" font-family="Verdana" font-size="13" lengthAdjust="spacing" textLength="63.0068" x="674" y="622.5569">«include»</text></g><!--link UC_Order to ClearCart--><g class="link" data-entity-1="UC_Order" data-entity-2="ClearCart" data-source-line="60" data-uid="lnk40" id="link_UC_Order_ClearCart"><path d="M468.91,565.29 C533.08,575.13 647.94,592.97 746,609.49 C863.09,629.23 932.12,566.01 1009,656.49 C1039.02,691.83 1026.2956,747.0745 1017.6556,774.1245" fill="none" id="UC_Order-to-ClearCart" style="stroke:#000000;stroke-width:1;stroke-dasharray:7,7;"/><polygon fill="#000000" points="1015.83,779.84,1022.3787,772.4838,1017.3513,775.0771,1014.758,770.0497,1015.83,779.84" style="stroke:#000000;stroke-width:1;"/><text fill="#000000" font-family="Verdana" font-size="13" lengthAdjust="spacing" textLength="63.0068" x="1028" y="689.4669">«include»</text></g><!--SRC=[ZLPBRzj64BxpLqnzg1-01FHn2W812WjOGXD5jkIWGLiKMt8iBKoHp78fMqXxI0CqI0032TfUUYZI96rJf6WAz4RsSP3_oFwJ3dVvsD166X_CsPblTcPdlftLMtAE2uGuO3nqd4teT3hGTwVNzoU5I8ehAlyEaZIS0VDa960tnKJ2SlqO5Yf_nE5MoaAOg_mU7AdiNv0alc2EmRff8gC52iToBUM-lw205O1YVT4hxTfYAygitkd2sKELFnWDOBGxE7lUXwdAdat1LTaJSDTtN1WFLFRpYDJvRpfvWPvauIn0sDZdGG2JLI9niG6t7O0qGOybPBaYecFwlWqJPCARmrX4Vkh9P0DO0WVkPyPkUrnZ8PiXJEPH77EgYyk4hD25R6F70VCGhWiVHGNH2nkpZqkEnrNW2cQqpfTEZTlg-puCwGJR6aEhOc7P3sAVIOGzweZaScLWHhadLnPm7nVH4gszZAArtGG3AY2TavjpKa21IM8yZB5GMHvZ58UHMC14HjuHk7FqZafqeT1h2-q6L75TFGFIQrt01dC31JzScGBIBaoc2V04DZ_0W2zHeBzfV0tE01ftbuKU1g-Mt-WgKhtRXOdAVX_3HohxProG_I4HAd_cafZzCTg5gyFrWn5yIDOfgEpvgBmLDrJs8eGPL_bByDO_4cyIbRsCuOJkG0o-oayzE7kayhimK_bJ3kk_OQdoEn2aAl-6QkdDLVPqvTJyWix7S-xx67xgHyTXfwPI-Rt0R6XK2HS0IW9HiXChjIBPWdgWAnJJRVt9gQlIx2BuR2vV6wT4M3nen7OsLliRiGrgsd_kq6MiYl7bzzoPQwRNKXjYyRokqBamht2fvCbxtQBbVvavSurOCeIzW_u81Yh_klZtP0nN2x5W1xdix4m7_PjwNdqx17UmFgMffV8VIBF-wkRE3a7C72KUvFUfAN_gmNaNMjF8CQXEfsUD8dAkvsRZ6QmVBugHVCgrubVOikOnJUaLqIy4J-M_C1Dxsvw-lPfnRQNfVrlRa6kldl-NB_FG2r8VUxswXLrTqswlwXsOlqkl1pVzUmDmqzCBmOQsDTeYwHk06xB-FxZcxuLfb5ohqJR9MkXMKV54OkXN9zVNj2bKbSKb2_X9k3KyX4ZhQLR6fAJnlLrH-Vqkx0uqAR_NT0qZUZC-ZoJr5w93gxa0VNeqgrcH09vu6CjpB-O60GNUIhb0O2dzdA37nsEIHs7NeT1GxFyV]--></g></svg>