<svg xmlns="http://www.w3.org/2000/svg" xmlns:xlink="http://www.w3.org/1999/xlink" contentStyleType="text/css" data-diagram-type="DESCRIPTION" height="870px" preserveAspectRatio="none" style="width:1791px;height:870px;background:#FFFFFF;" version="1.1" viewBox="0 0 1791 870" width="1791px" zoomAndPan="magnify"><defs/><g><!--cluster Rill System--><g class="cluster" data-entity="Rill System" data-source-line="6" data-uid="ent0003" id="cluster_Rill System"><rect fill="#FFFFFF" height="211.86" rx="2.5" ry="2.5" style="stroke:#000000;stroke-width:1;" width="1423" x="12" y="150.29"/><text fill="#000000" font-family="Verdana" font-size="14" font-weight="bold" lengthAdjust="spacing" textLength="88.3682" x="679.3159" y="165.2851">Rill System</text></g><!--cluster Catalog Management--><g class="cluster" data-entity="Catalog Management" data-source-line="7" data-uid="ent0004" id="cluster_Catalog Management"><path d="M739.5,205.13 L908.7256,205.13 A3.75,3.75 0 0 1 911.2256,207.63 L918.2256,227.4269 L1127.5,227.4269 A2.5,2.5 0 0 1 1130,229.9269 L1130,323.81 A2.5,2.5 0 0 1 1127.5,326.31 L739.5,326.31 A2.5,2.5 0 0 1 737,323.81 L737,207.63 A2.5,2.5 0 0 1 739.5,205.13" fill="#FFFFFF" style="stroke:#000000;stroke-width:1;"/><line style="stroke:#000000;stroke-width:1;" x1="737" x2="918.2256" y1="227.4269" y2="227.4269"/><text fill="#000000" font-family="Verdana" font-size="14" font-weight="bold" lengthAdjust="spacing" textLength="168.2256" x="741" y="220.1251">Catalog Management</text></g><!--cluster Order Fulfillment--><g class="cluster" data-entity="Order Fulfillment" data-source-line="11" data-uid="ent0007" id="cluster_Order Fulfillment"><path d="M46.5,201.29 L183.1592,201.29 A3.75,3.75 0 0 1 185.6592,203.79 L192.6592,223.5869 L694.5,223.5869 A2.5,2.5 0 0 1 697,226.0869 L697,327.65 A2.5,2.5 0 0 1 694.5,330.15 L46.5,330.15 A2.5,2.5 0 0 1 44,327.65 L44,203.79 A2.5,2.5 0 0 1 46.5,201.29" fill="#FFFFFF" style="stroke:#000000;stroke-width:1;"/><line style="stroke:#000000;stroke-width:1;" x1="44" x2="192.6592" y1="223.5869" y2="223.5869"/><text fill="#000000" font-family="Verdana" font-size="14" font-weight="bold" lengthAdjust="spacing" textLength="135.6592" x="48" y="216.2851">Order Fulfillment</text></g><!--cluster Customer Information--><g class="cluster" data-entity="Customer Information" data-source-line="16" data-uid="ent0011" id="cluster_Customer Information"><path d="M1172.5,203.79 L1347.1465,203.79 A3.75,3.75 0 0 1 1349.6465,206.29 L1356.6465,226.0869 L1400.5,226.0869 A2.5,2.5 0 0 1 1403,228.5869 L1403,325.16 A2.5,2.5 0 0 1 1400.5,327.66 L1172.5,327.66 A2.5,2.5 0 0 1 1170,325.16 L1170,206.29 A2.5,2.5 0 0 1 1172.5,203.79" fill="#FFFFFF" style="stroke:#000000;stroke-width:1;"/><line style="stroke:#000000;stroke-width:1;" x1="1170" x2="1356.6465" y1="226.0869" y2="226.0869"/><text fill="#000000" font-family="Verdana" font-size="14" font-weight="bold" lengthAdjust="spacing" textLength="173.6465" x="1174" y="218.7851">Customer Information</text></g><!--entity UC_Products--><g class="entity" data-entity="UC_Products" data-source-line="8" data-uid="ent0005" id="entity_UC_Products"><ellipse cx="1029.9963" cy="284.7233" fill="#FFFFFF" rx="75.9663" ry="17.5933" style="stroke:#000000;stroke-width:1;"/><text fill="#000000" font-family="Verdana" font-size="14" lengthAdjust="spacing" textLength="121.0645" x="969.464" y="289.3717">Manage Products</text></g><!--entity UC_Artists--><g class="entity" data-entity="UC_Artists" data-source-line="9" data-uid="ent0006" id="entity_UC_Artists"><ellipse cx="850.0049" cy="284.719" fill="#FFFFFF" rx="69.3949" ry="16.279" style="stroke:#000000;stroke-width:1;"/><text fill="#000000" font-family="Verdana" font-size="14" lengthAdjust="spacing" textLength="104.8496" x="797.5801" y="289.3674">Manage Artists</text></g><!--entity UC_Process--><g class="entity" data-entity="UC_Process" data-source-line="12" data-uid="ent0008" id="entity_UC_Process"><ellipse cx="135.0006" cy="284.7161" fill="#FFFFFF" rx="66.7806" ry="15.7561" style="stroke:#000000;stroke-width:1;"/><text fill="#000000" font-family="Verdana" font-size="14" lengthAdjust="spacing" textLength="98.1436" x="85.9288" y="289.3646">Process Order</text></g><!--entity UC_UpdateStatus--><g class="entity" data-entity="UC_UpdateStatus" data-source-line="13" data-uid="ent0009" id="entity_UC_UpdateStatus"><ellipse cx="394.0001" cy="284.718" fill="#FFFFFF" rx="95.1401" ry="21.428" style="stroke:#000000;stroke-width:1;"/><text fill="#000000" font-family="Verdana" font-size="14" lengthAdjust="spacing" textLength="165.2861" x="311.3571" y="289.3665">Update Shipping Status</text></g><!--entity UC_Cancel--><g class="entity" data-entity="UC_Cancel" data-source-line="14" data-uid="ent0010" id="entity_UC_Cancel"><ellipse cx="589.0046" cy="284.7229" fill="#FFFFFF" rx="64.4146" ry="15.2829" style="stroke:#000000;stroke-width:1;"/><text fill="#000000" font-family="Verdana" font-size="14" lengthAdjust="spacing" textLength="91.9092" x="543.05" y="289.3714">Cancel Order</text></g><!--entity UC_ViewInfo--><g class="entity" data-entity="UC_ViewInfo" data-source-line="17" data-uid="ent0012" id="entity_UC_ViewInfo"><ellipse cx="1296.0007" cy="284.7241" fill="#FFFFFF" rx="82.6707" ry="18.9341" style="stroke:#000000;stroke-width:1;"/><text fill="#000000" font-family="Verdana" font-size="14" lengthAdjust="spacing" textLength="136.9307" x="1227.5354" y="289.3726">View Customer Info</text></g><!--entity Admin--><g class="entity" data-entity="Admin" data-source-line="3" data-uid="ent0002" id="entity_Admin"><ellipse cx="850.0021" cy="19" fill="#FFFFFF" rx="8" ry="8" style="stroke:#000000;stroke-width:1;"/><path d="M850.0021,27 L850.0021,54 M837.0021,35 L863.0021,35 M850.0021,54 L837.0021,69 M850.0021,54 L863.0021,69" fill="none" style="stroke:#000000;stroke-width:1;"/><text fill="#000000" font-family="Verdana" font-size="14" lengthAdjust="spacing" textLength="44.8643" x="827.57" y="83.9951">Admin</text></g><!--entity AddProd--><g class="entity" data-entity="AddProd" data-source-line="22" data-uid="ent0013" id="entity_AddProd"><ellipse cx="1516.9955" cy="284.7151" fill="#FFFFFF" rx="66.1255" ry="15.6251" style="stroke:#000000;stroke-width:1;"/><text fill="#000000" font-family="Verdana" font-size="14" lengthAdjust="spacing" textLength="96.4346" x="1468.7782" y="289.3635">(Add Product)</text></g><!--entity EditProd--><g class="entity" data-entity="EditProd" data-source-line="23" data-uid="ent0014" id="entity_EditProd"><ellipse cx="1310.0042" cy="444.6168" fill="#FFFFFF" rx="66.0342" ry="15.6068" style="stroke:#000000;stroke-width:1;"/><text fill="#000000" font-family="Verdana" font-size="14" lengthAdjust="spacing" textLength="96.1953" x="1261.9065" y="449.2653">(Edit Product)</text></g><!--entity DelProd--><g class="entity" data-entity="DelProd" data-source-line="24" data-uid="ent0015" id="entity_DelProd"><ellipse cx="1183.005" cy="558.201" fill="#FFFFFF" rx="73.505" ry="17.101" style="stroke:#000000;stroke-width:1;"/><text fill="#000000" font-family="Verdana" font-size="14" lengthAdjust="spacing" textLength="115.083" x="1125.4635" y="562.8494">(Delete Product)</text></g><!--entity AddArtist--><g class="entity" data-entity="AddArtist" data-source-line="25" data-uid="ent0016" id="entity_AddArtist"><ellipse cx="1056.0039" cy="666.8336" fill="#FFFFFF" rx="59.7239" ry="14.5236" style="stroke:#000000;stroke-width:1;"/><text fill="#000000" font-family="Verdana" font-size="14" lengthAdjust="spacing" textLength="80.2197" x="1015.894" y="671.4821">(Add Artist)</text></g><!--entity EditArtist--><g class="entity" data-entity="EditArtist" data-source-line="26" data-uid="ent0017" id="entity_EditArtist"><ellipse cx="963.0047" cy="756.8736" fill="#FFFFFF" rx="59.5547" ry="14.5236" style="stroke:#000000;stroke-width:1;"/><text fill="#000000" font-family="Verdana" font-size="14" lengthAdjust="spacing" textLength="79.9805" x="923.0145" y="761.5221">(Edit Artist)</text></g><!--entity DelArtist--><g class="entity" data-entity="DelArtist" data-source-line="27" data-uid="ent0018" id="entity_DelArtist"><ellipse cx="869.9998" cy="848.212" fill="#FFFFFF" rx="67.0598" ry="15.812" style="stroke:#000000;stroke-width:1;"/><text fill="#000000" font-family="Verdana" font-size="14" lengthAdjust="spacing" textLength="98.8682" x="820.5657" y="852.8604">(Delete Artist)</text></g><!--entity ViewProfile--><g class="entity" data-entity="ViewProfile" data-source-line="30" data-uid="ent0019" id="entity_ViewProfile"><ellipse cx="1702.0043" cy="284.7169" fill="#FFFFFF" rx="83.9343" ry="19.1869" style="stroke:#000000;stroke-width:1;"/><text fill="#000000" font-family="Verdana" font-size="14" lengthAdjust="spacing" textLength="139.8633" x="1632.0727" y="289.3653">(View Personal Info)</text></g><!--entity ViewHistory--><g class="entity" data-entity="ViewHistory" data-source-line="31" data-uid="ent0020" id="entity_ViewHistory"><ellipse cx="1529.9968" cy="444.6154" fill="#FFFFFF" rx="85.3768" ry="19.4754" style="stroke:#000000;stroke-width:1;"/><text fill="#000000" font-family="Verdana" font-size="14" lengthAdjust="spacing" textLength="143.1924" x="1458.4006" y="449.2638">(View Order History)</text></g><g class="entity" data-entity="AuthNote" data-source-line="73" data-uid="ent0045" id="entity_AuthNote"><path d="M497.26,432.06 L497.26,457.1928 L796.7317,457.1928 L796.7317,442.06 L786.7317,432.06 L497.26,432.06" fill="#FFFFFF" style="stroke:#000000;stroke-width:1;"/><path d="M786.7317,432.06 L786.7317,442.06 L796.7317,442.06 L786.7317,432.06" fill="#FFFFFF" style="stroke:#000000;stroke-width:1;"/><text fill="#000000" font-family="Verdana" font-size="13" lengthAdjust="spacing" textLength="278.4717" x="503.26" y="449.1269">All use cases require admin authentication</text></g><!--link UC_Artists to UC_Process--><!--link UC_Cancel to UC_ViewInfo--><!--link UC_Products to AddProd--><!--link UC_Products to AddProd--><g class="link" data-entity-1="UC_Products" data-entity-2="AddProd" data-source-line="60" data-uid="lnk37" id="link_UC_Products_AddProd"><path d="M1040.78,267.22 C1060.48,237.14 1105.5,176.61 1162,153.28 C1257.71,113.75 1300.08,111.88 1395,153.28 C1450.08,177.31 1488.4357,234.6221 1505.4657,263.9321" fill="none" id="UC_Products-to-AddProd" style="stroke:#000000;stroke-width:1;stroke-dasharray:7,7;"/><polygon fill="#000000" points="1508.48,269.12,1507.4171,259.3287,1505.9681,264.7968,1500.5,263.3477,1508.48,269.12" style="stroke:#000000;stroke-width:1;"/><text fill="#000000" font-family="Verdana" font-size="13" lengthAdjust="spacing" textLength="63.0068" x="1207.5" y="130.3569">«include»</text></g><!--link AddProd to EditProd--><!--link EditProd to DelProd--><!--link DelProd to AddArtist--><!--link AddArtist to EditArtist--><!--link EditArtist to DelArtist--><!--link UC_ViewInfo to ViewProfile--><!--link UC_ViewInfo to ViewProfile--><g class="link" data-entity-1="UC_ViewInfo" data-entity-2="ViewProfile" data-source-line="68" data-uid="lnk43" id="link_UC_ViewInfo_ViewProfile"><path d="M1308.37,265.74 C1329.57,235.18 1376.12,176.15 1433,153.28 C1502.28,125.42 1534.02,120.28 1601,153.28 C1648.76,176.81 1677.7662,229.5137 1691.5462,259.9637" fill="none" id="UC_ViewInfo-to-ViewProfile" style="stroke:#000000;stroke-width:1;stroke-dasharray:7,7;"/><polygon fill="#000000" points="1694.02,265.43,1693.9536,255.5814,1691.9585,260.8747,1686.6652,258.8797,1694.02,265.43" style="stroke:#000000;stroke-width:1;"/><text fill="#000000" font-family="Verdana" font-size="13" lengthAdjust="spacing" textLength="63.0068" x="1466.5" y="130.3569">«include»</text></g><!--link ViewProfile to ViewHistory--><!--link Admin to UC_Products--><g class="link" data-entity-1="Admin" data-entity-2="UC_Products" data-source-line="50" data-uid="lnk31" id="link_Admin_UC_Products"><path d="M872.59,71.51 C890.86,89.69 916.78,116.65 937,142.29 C970.67,184.98 1001.1872,234.6647 1017.2272,261.8047" fill="none" id="Admin-to-UC_Products" style="stroke:#000000;stroke-width:1;"/><polygon fill="#000000" points="1020.28,266.97,1019.1444,257.1868,1017.736,262.6656,1012.2573,261.2572,1020.28,266.97" style="stroke:#000000;stroke-width:1;"/></g><!--link Admin to UC_Artists--><g class="link" data-entity-1="Admin" data-entity-2="UC_Artists" data-source-line="51" data-uid="lnk32" id="link_Admin_UC_Artists"><path d="M850,87.77 C850,139.98 850,225.4 850,261.96" fill="none" id="Admin-to-UC_Artists" style="stroke:#000000;stroke-width:1;"/><polygon fill="#000000" points="850,267.96,854,258.96,850,262.96,846,258.96,850,267.96" style="stroke:#000000;stroke-width:1;"/></g><!--link Admin to UC_Process--><g class="link" data-entity-1="Admin" data-entity-2="UC_Process" data-source-line="52" data-uid="lnk33" id="link_Admin_UC_Process"><path d="M827.18,51.53 C733.67,59.52 380.05,92.54 281,142.29 C219.51,173.18 170.5065,234.2157 148.9665,263.8657" fill="none" id="Admin-to-UC_Process" style="stroke:#000000;stroke-width:1;"/><polygon fill="#000000" points="145.44,268.72,153.9659,263.7896,148.3787,264.6748,147.4936,259.0876,145.44,268.72" style="stroke:#000000;stroke-width:1;"/></g><!--link Admin to UC_Cancel--><g class="link" data-entity-1="Admin" data-entity-2="UC_Cancel" data-source-line="53" data-uid="lnk34" id="link_Admin_UC_Cancel"><path d="M827.16,55.24 C787.77,65.94 706.56,92.77 657,142.29 C619.81,179.46 601.5975,235.173 594.1175,263.193" fill="none" id="Admin-to-UC_Cancel" style="stroke:#000000;stroke-width:1;"/><polygon fill="#000000" points="592.57,268.99,598.7559,261.3262,593.8596,264.1592,591.0266,259.2628,592.57,268.99" style="stroke:#000000;stroke-width:1;"/></g><!--link Admin to UC_ViewInfo--><g class="link" data-entity-1="Admin" data-entity-2="UC_ViewInfo" data-source-line="55" data-uid="lnk35" id="link_Admin_UC_ViewInfo"><path d="M872.64,49.83 C933.24,51.42 1101.8,63.16 1209,142.29 C1252.37,174.31 1276.7415,229.3842 1287.8415,259.7742" fill="none" id="Admin-to-UC_ViewInfo" style="stroke:#000000;stroke-width:1;"/><polygon fill="#000000" points="1289.9,265.41,1290.5695,255.5839,1288.1846,260.7135,1283.055,258.3286,1289.9,265.41" style="stroke:#000000;stroke-width:1;"/></g><!--link UC_Process to UC_UpdateStatus--><g class="link" data-entity-1="UC_Process" data-entity-2="UC_UpdateStatus" data-source-line="57" data-uid="lnk36" id="link_UC_Process_UC_UpdateStatus"><path d="M202.04,284.72 C231.41,284.72 260.43,284.72 292.46,284.72" fill="none" id="UC_Process-to-UC_UpdateStatus" style="stroke:#000000;stroke-width:1;stroke-dasharray:7,7;"/><polygon fill="#000000" points="298.46,284.72,289.46,280.72,293.46,284.72,289.46,288.72,298.46,284.72" style="stroke:#000000;stroke-width:1;"/><text fill="#000000" font-family="Verdana" font-size="13" lengthAdjust="spacing" textLength="61.1851" x="219.82" y="277.7869">«extend»</text></g><!--link UC_Products to EditProd--><g class="link" data-entity-1="UC_Products" data-entity-2="EditProd" data-source-line="61" data-uid="lnk38" id="link_UC_Products_EditProd"><path d="M1053.37,301.76 C1079.39,319.36 1122.93,348.04 1162,370.15 C1202.32,392.96 1245.2313,413.7061 1275.4313,427.7761" fill="none" id="UC_Products-to-EditProd" style="stroke:#000000;stroke-width:1;stroke-dasharray:7,7;"/><polygon fill="#000000" points="1280.87,430.31,1274.4012,422.8834,1276.3377,428.1984,1271.0227,430.135,1280.87,430.31" style="stroke:#000000;stroke-width:1;"/><text fill="#000000" font-family="Verdana" font-size="13" lengthAdjust="spacing" textLength="63.0068" x="1207" y="391.2169">«include»</text></g><!--link UC_Products to DelProd--><g class="link" data-entity-1="UC_Products" data-entity-2="DelProd" data-source-line="62" data-uid="lnk39" id="link_UC_Products_DelProd"><path d="M1039.34,302.29 C1066.72,350.88 1143.6142,487.3129 1170.8342,535.6129" fill="none" id="UC_Products-to-DelProd" style="stroke:#000000;stroke-width:1;stroke-dasharray:7,7;"/><polygon fill="#000000" points="1173.78,540.84,1172.8461,531.0355,1171.3252,536.4841,1165.8766,534.9632,1173.78,540.84" style="stroke:#000000;stroke-width:1;"/><text fill="#000000" font-family="Verdana" font-size="13" lengthAdjust="spacing" textLength="63.0068" x="1130" y="449.1869">«include»</text></g><!--link UC_Artists to AddArtist--><g class="link" data-entity-1="UC_Artists" data-entity-2="AddArtist" data-source-line="63" data-uid="lnk40" id="link_UC_Artists_AddArtist"><path d="M861.86,301.12 C877.22,320.04 905.75,351.87 937,370.15 C947.8,376.47 955.06,369.39 964,378.15 C1044.57,457.01 1054.5455,600.322 1055.7255,646.122" fill="none" id="UC_Artists-to-AddArtist" style="stroke:#000000;stroke-width:1;stroke-dasharray:7,7;"/><polygon fill="#000000" points="1055.88,652.12,1059.6469,643.02,1055.7512,647.1217,1051.6495,643.226,1055.88,652.12" style="stroke:#000000;stroke-width:1;"/><text fill="#000000" font-family="Verdana" font-size="13" lengthAdjust="spacing" textLength="63.0068" x="1035" y="507.1669">«include»</text></g><!--link UC_Artists to EditArtist--><g class="link" data-entity-1="UC_Artists" data-entity-2="EditArtist" data-source-line="64" data-uid="lnk41" id="link_UC_Artists_EditArtist"><path d="M865.33,300.74 C890.54,327.12 938,384.62 938,443.62 C938,443.62 938,443.62 938,667.83 C938,695 946.7561,719.6482 954.1661,736.6782" fill="none" id="UC_Artists-to-EditArtist" style="stroke:#000000;stroke-width:1;stroke-dasharray:7,7;"/><polygon fill="#000000" points="956.56,742.18,956.637,732.3314,954.5651,737.5952,949.3013,735.5233,956.56,742.18" style="stroke:#000000;stroke-width:1;"/><text fill="#000000" font-family="Verdana" font-size="13" lengthAdjust="spacing" textLength="63.0068" x="939" y="562.7669">«include»</text></g><!--link UC_Artists to DelArtist--><g class="link" data-entity-1="UC_Artists" data-entity-2="DelArtist" data-source-line="65" data-uid="lnk42" id="link_UC_Artists_DelArtist"><path d="M850,301.41 C850,329.79 850,391.54 850,443.62 C850,443.62 850,443.62 850,757.87 C850,784.57 856.6932,809.0144 862.6132,826.5744" fill="none" id="UC_Artists-to-DelArtist" style="stroke:#000000;stroke-width:1;stroke-dasharray:7,7;"/><polygon fill="#000000" points="864.53,832.26,865.4452,822.4538,862.9327,827.522,857.8644,825.0095,864.53,832.26" style="stroke:#000000;stroke-width:1;"/><text fill="#000000" font-family="Verdana" font-size="13" lengthAdjust="spacing" textLength="63.0068" x="851" y="618.3669">«include»</text></g><!--link UC_ViewInfo to ViewHistory--><g class="link" data-entity-1="UC_ViewInfo" data-entity-2="ViewHistory" data-source-line="69" data-uid="lnk44" id="link_UC_ViewInfo_ViewHistory"><path d="M1321.49,302.92 C1366.14,333.05 1453.1163,391.744 1498.4963,422.364" fill="none" id="UC_ViewInfo-to-ViewHistory" style="stroke:#000000;stroke-width:1;stroke-dasharray:7,7;"/><polygon fill="#000000" points="1503.47,425.72,1498.2468,417.3703,1499.3253,422.9234,1493.7722,424.0018,1503.47,425.72" style="stroke:#000000;stroke-width:1;"/><text fill="#000000" font-family="Verdana" font-size="13" lengthAdjust="spacing" textLength="63.0068" x="1455" y="391.2169">«include»</text></g><!--link Catalog Management to AuthNote--><g class="link" data-entity-1="Catalog Management" data-entity-2="AuthNote" data-source-line="74" data-uid="lnk46" id="link_Catalog Management_AuthNote"><path d="M736.857,306.9033 C736.8008,307.0407 736.7444,307.1787 736.6877,307.3171 C736.5744,307.594 736.46,307.8729 736.3445,308.1538 C736.1136,308.7156 735.8785,309.2852 735.6392,309.8624 C733.7246,314.4801 731.5428,319.5822 729.1188,325.0062 C719.4225,346.7025 705.85,373.55 690,395.15 C680.28,408.39 667.66,422.3 658.61,431.8" fill="none" id="Catalog Management-AuthNote" style="stroke:#000000;stroke-width:1;stroke-dasharray:7,7;"/></g><!--link Order Fulfillment to AuthNote--><g class="link" data-entity-1="Order Fulfillment" data-entity-2="AuthNote" data-source-line="75" data-uid="lnk47" id="link_Order Fulfillment_AuthNote"><path d="M678.9134,330.4658 C678.8801,330.607 678.8467,330.7484 678.8132,330.8899 C678.7463,331.1728 678.6793,331.4564 678.612,331.7404 C678.3429,332.8765 678.0707,334.021 677.7958,335.1723 C677.246,337.4747 676.6851,339.8042 676.1155,342.148 C673.8369,351.5231 671.4175,361.1275 669,370.15 C663.14,392.01 655.36,417.24 650.8,431.72" fill="none" id="Order Fulfillment-AuthNote" style="stroke:#000000;stroke-width:1;stroke-dasharray:7,7;"/></g><!--link Customer Information to AuthNote--><g class="link" data-entity-1="Customer Information" data-entity-2="AuthNote" data-source-line="76" data-uid="lnk48" id="link_Customer Information_AuthNote"><path d="M1169.8712,306.9666 C1168.1271,310.9136 1166.0991,315.2119 1163.7838,319.6825 C1154.5225,337.565 1140.665,358.205 1122,370.15 C1069.33,403.86 915.52,423.28 797.06,433.59" fill="none" id="Customer Information-AuthNote" style="stroke:#000000;stroke-width:1;stroke-dasharray:7,7;"/></g><!--SRC=[ZPPBRzD04CVl-HH3BosHOed7gQeY1GDDH1jIqbH52A6jlOrNTTR1NgkjK0zme58lz8G4f_8GgX0213SRmS7z8lucpFhz4kMIxCxyTcQoy_SuLuH1PnJc9c6yrIAQi6pewJEvMOHEfmFN5BWu3VsJOH-6g_sBynwemNCLHltG-pI4pT3_8h6MJJL1-DIaiF20cIQC3nr1Pmlmh0Km9zeUcQ979OAOrXJM2SVzZ78H0m2kGpNY81AxO6HRkgi9Pm680nFrIRflX7ksO4xE9bj4Zuh9xziwjU6kQ-vYVOsvCOb67GSYif1P6ilaPAuJGM5iiFcSyIcC1H5kLa3iZMtbSohX6ZNB2M9RjLhLTOGrmu87VDUoPqGmYzSAtc9q7qfa6bHwv3uAUoHxES43qIdDug0P5jIRqSe2B_LqFUt1rIWc6kI-WDpHcIWpqbA1RbEJ2bh6q5QXPBQuQrcoU5jDLuIaeKOb-OeScXAiyHOQxhaGBxhX4RKTYnCpOkAWqeu_0gL4gtIiipucjEp3d4uCwMDrNO5nw7qTmNRe_Hx1hT0_1JNqFwguzBuFLs5j49mCuHvwDo7qpeVHKvQh6pgF3ARhb3-ssTGGdQ9KCr4rGPaoi12iuDiS3aBlpnoqu9qcbPLVZp22Csx43YtqtmYmMV0PrRx3GlzOm0vkO6w4tWVMAZoYjQIfT9BltAzR-xoJgoPTL85KBybtrPsB9LirfKYOVDcG9jL9uPfglwRO-SAw6gtKygJdDnJO2hrVyG1TnuuFO6FI6q8_z5_AZ_SZM9DBsUbe1kEgMvf-9Miwvwfef86ICHanYz1kZt5WzsIQrmCStjxP0ATxyEBXCcm7FmcsVIO70UmPeV-AWHxym7RpuEomtIv7p5MKvmGbkYAbMvs1i0mhA_H0KAvtk_8oDbp20LCSevrnpNHrskqMXr99JrdOL40G1SmEDiEPclu7JgNL0AVFMx6AH42NixdQBcSp_LNY_lk-YkEhfDiiRb6ajIgQyKIurK8I6TzKOBK_0BKVl8saoYsSk0izVEcduyC1cpvrcKs1HA8XBlxBu89foMjCZdWq3V5WQwd-7heAYb80QY_kYhzfX9UGlm00]--></g></svg>